<svg id="Layer_1" data-name="Layer 1" xmlns="http://www.w3.org/2000/svg" xmlns:xlink="http://www.w3.org/1999/xlink" viewBox="0 0 160.9 68.34"><defs><style>.cls-1{fill:url(#linear-gradient);}.cls-2{fill:#88929a;}.cls-3{fill:#f7941d;}.cls-12,.cls-4,.cls-6{fill:none;}.cls-4,.cls-6{stroke:#9ba4ae;}.cls-4{stroke-width:0.2px;}.cls-5{fill:#9ba4ae;}.cls-6{stroke-width:0.22px;}.cls-7{fill:url(#linear-gradient-2);}.cls-8{fill:url(#linear-gradient-3);}.cls-9{fill:url(#linear-gradient-4);}.cls-10{fill:url(#linear-gradient-5);}.cls-11{fill:url(#linear-gradient-6);}.cls-12{stroke:#88929a;stroke-miterlimit:3.86;stroke-width:0.6px;}</style><linearGradient id="linear-gradient" x1="25.82" y1="17.97" x2="1.45" y2="52.11" gradientUnits="userSpaceOnUse"><stop offset="0.38" stop-color="#fff"/><stop offset="0.39" stop-color="#f9f9f9"/><stop offset="0.51" stop-color="#c7c7c7"/><stop offset="0.61" stop-color="#9e9e9e"/><stop offset="0.72" stop-color="#7e7e7e"/><stop offset="0.82" stop-color="#676767"/><stop offset="0.92" stop-color="#595959"/><stop offset="1" stop-color="#545454"/><stop offset="1" stop-color="#6e6e6e"/></linearGradient><linearGradient id="linear-gradient-2" x1="8.01" y1="27.64" x2="22.54" y2="27.64" gradientUnits="userSpaceOnUse"><stop offset="0" stop-color="#fff200"/><stop offset="1" stop-color="#f7941d"/></linearGradient><linearGradient id="linear-gradient-3" x1="11.37" y1="22.98" x2="0.64" y2="17.16" xlink:href="#linear-gradient-2"/><linearGradient id="linear-gradient-4" x1="23.57" y1="6.05" x2="35.3" y2="6.05" xlink:href="#linear-gradient-2"/><linearGradient id="linear-gradient-5" x1="2.98" y1="1.88" x2="21.92" y2="5.19" xlink:href="#linear-gradient-2"/><linearGradient id="linear-gradient-6" x1="30.61" y1="6.86" x2="39.08" y2="16.58" xlink:href="#linear-gradient-2"/></defs><title>CERT future</title><rect class="cls-1" x="7.85" y="1.94" width="28.59" height="42.34"/><path class="cls-2" d="M48.28,19.47a3.66,3.66,0,0,0,3.61,3.6H70.67v2.3H51.84A5.92,5.92,0,0,1,46,19.52v-.14a5.94,5.94,0,0,1,5.55-5.89H70.67v2.3H51.89a3.66,3.66,0,0,0-3.61,3.6Z"/><path class="cls-2" d="M79.38,25.42a5.94,5.94,0,0,1,0-11.87H98.12v2.34H79.44A3.63,3.63,0,0,0,76,18.31H98.12v2.34H76a3.66,3.66,0,0,0,3.38,2.43H98.14v2.34Z"/><polygon class="cls-2" points="141.83 25.38 139.51 25.38 139.51 15.82 128.37 15.82 128.39 13.47 153.05 13.48 153.05 15.82 141.83 15.82 141.83 25.38"/><path class="cls-2" d="M100.84,19.24a6,6,0,0,1,5.91-5.84h18.71v2.33H106.8a3.61,3.61,0,0,0-3.6,3.58v6.09h-2.39V19.24Z"/><path class="cls-2" d="M46.76,44c-.83,0-1.29-.87-1.29-1.93s.46-1.93,1.29-1.93a1,1,0,0,1,.67.21l-.11.29a.84.84,0,0,0-.48-.15c-.66,0-.9.78-.9,1.57s.26,1.55.89,1.55a.81.81,0,0,0,.48-.14l.12.31a1.07,1.07,0,0,1-.68.21"/><path class="cls-2" d="M48.08,42.64c0,.66.33,1,.82,1a1.26,1.26,0,0,0,.67-.17l.11.32a1.54,1.54,0,0,1-.82.2c-.71,0-1.21-.48-1.21-1.53s.45-1.51,1.09-1.51,1,.46,1,1.43Zm.66-1.39c-.39,0-.68.35-.67,1.14l1.29-.21c0-.66-.24-.92-.62-.92"/><path class="cls-2" d="M51.8,43.92v-2.1a.51.51,0,0,0-.57-.57,1,1,0,0,0-.51.11v2.57h-.44V41.14a2.11,2.11,0,0,1,1-.21c.75,0,1,.45,1,.87v2.11Z"/><path class="cls-2" d="M53.67,44a.67.67,0,0,1-.68-.74V41.29h-.31V41H53v-.67l.44-.15V41h.47v.3h-.47V43.2c0,.23.09.42.34.42l.13,0v.31a.73.73,0,0,1-.24,0"/><path class="cls-2" d="M55.41,41.31a.75.75,0,0,0-.62.05v2.56h-.44V41.15a2,2,0,0,1,1.16-.21Z"/><path class="cls-2" d="M56.11,42.64c.05.66.34,1,.82,1a1.24,1.24,0,0,0,.67-.17l.12.32a1.54,1.54,0,0,1-.82.2c-.71,0-1.2-.48-1.2-1.53s.45-1.51,1.08-1.51,1,.46,1,1.43Zm.66-1.39c-.39,0-.68.35-.68,1.14l1.3-.21c0-.66-.24-.92-.62-.92"/><path class="cls-2" d="M60.56,44c-.74,0-1.06-.66-1.06-1.52s.33-1.52,1.05-1.52,1.06.65,1.06,1.52S61.29,44,60.56,44m0-2.74c-.52,0-.62.62-.62,1.22s.11,1.19.62,1.19.61-.6.61-1.19-.09-1.22-.61-1.22"/><path class="cls-2" d="M62.68,41.29v2.63h-.44V41.29h-.31V41h.31v-.41a.82.82,0,0,1,.92-.92V40c-.27,0-.47.15-.47.57V41h.47v.3Z"/><polygon class="cls-2" points="64.85 43.92 64.85 40.18 66.45 40.18 66.45 40.52 65.31 40.52 65.31 41.82 66.34 41.82 66.34 42.15 65.31 42.15 65.31 43.58 66.45 43.58 66.45 43.92 64.85 43.92"/><polygon class="cls-2" points="68.28 43.92 67.7 42.73 67.69 42.73 67.1 43.92 66.64 43.92 67.48 42.4 66.73 40.99 67.19 40.99 67.72 42.06 67.73 42.06 68.27 40.99 68.69 40.99 67.93 42.37 68.77 43.92 68.28 43.92"/><path class="cls-2" d="M70,44c-.59,0-1-.58-1-1.52s.44-1.52,1-1.52a.84.84,0,0,1,.6.19l-.1.28a.61.61,0,0,0-.4-.14c-.49,0-.68.48-.68,1.17s.23,1.19.66,1.19a.64.64,0,0,0,.41-.14l.11.3A.86.86,0,0,1,70,44"/><path class="cls-2" d="M71.25,42.64c0,.66.33,1,.82,1a1.27,1.27,0,0,0,.67-.17l.11.32A1.53,1.53,0,0,1,72,44c-.71,0-1.2-.48-1.2-1.53s.45-1.51,1.09-1.51,1,.46,1,1.43Zm.66-1.39c-.39,0-.68.35-.67,1.14l1.29-.21c0-.66-.24-.92-.62-.92"/><rect class="cls-2" x="73.49" y="39.65" width="0.44" height="4.27"/><rect class="cls-2" x="74.65" y="39.65" width="0.44" height="4.27"/><path class="cls-2" d="M76,42.64c.05.66.33,1,.82,1a1.26,1.26,0,0,0,.67-.17l.11.32a1.53,1.53,0,0,1-.82.2c-.71,0-1.2-.48-1.2-1.53s.45-1.51,1.09-1.51,1,.46,1,1.43Zm.66-1.39c-.39,0-.68.35-.67,1.14l1.3-.21c0-.66-.24-.92-.62-.92"/><path class="cls-2" d="M79.77,43.92v-2.1a.51.51,0,0,0-.57-.57,1,1,0,0,0-.51.11v2.57h-.44V41.14a2.09,2.09,0,0,1,1-.21c.75,0,1,.45,1,.87v2.11Z"/><path class="cls-2" d="M81.75,44c-.59,0-1-.58-1-1.52s.44-1.52,1-1.52a.84.84,0,0,1,.6.19l-.1.28a.6.6,0,0,0-.4-.14c-.5,0-.68.48-.68,1.17s.23,1.19.67,1.19a.64.64,0,0,0,.41-.14l.11.3a.85.85,0,0,1-.6.2"/><path class="cls-2" d="M83,42.64c0,.66.33,1,.82,1a1.26,1.26,0,0,0,.67-.17l.11.32a1.54,1.54,0,0,1-.82.2c-.71,0-1.2-.48-1.2-1.53s.45-1.51,1.08-1.51,1,.46,1,1.43Zm.66-1.39c-.39,0-.68.35-.67,1.14l1.29-.21c0-.66-.24-.92-.62-.92"/><path class="cls-2" d="M87.08,41.29v2.63h-.44V41.29h-.31V41h.31v-.41a.82.82,0,0,1,.92-.92V40c-.27,0-.48.15-.48.57V41h.48v.3Z"/><path class="cls-2" d="M88.84,44c-.74,0-1.06-.66-1.06-1.52s.33-1.52,1.06-1.52,1.05.65,1.05,1.52S89.58,44,88.84,44m0-2.74c-.51,0-.62.62-.62,1.22s.11,1.19.62,1.19.61-.6.61-1.19-.09-1.22-.61-1.22"/><path class="cls-2" d="M91.46,41.31a.74.74,0,0,0-.62.05v2.56H90.4V41.15a2,2,0,0,1,1.16-.21Z"/><path class="cls-2" d="M95.21,43.92l-.33-1.12H93.69l-.33,1.12h-.42l1.17-3.74h.41l1.16,3.74Zm-.81-2.84a2.44,2.44,0,0,1-.1-.45h0a3.45,3.45,0,0,1-.1.45l-.41,1.42h1Z"/><path class="cls-2" d="M96.89,44a1.34,1.34,0,0,1-.42-.07v1.2H96v-4a1.57,1.57,0,0,1,.84-.21c.76,0,1.2.58,1.2,1.48S97.6,44,96.89,44m0-2.74a.84.84,0,0,0-.38.08v2.3a.86.86,0,0,0,.33.06c.55,0,.83-.46.83-1.24s-.2-1.21-.77-1.21"/><path class="cls-2" d="M99.43,44A1.35,1.35,0,0,1,99,43.9v1.2h-.44v-4a1.58,1.58,0,0,1,.84-.21c.76,0,1.19.58,1.19,1.48S100.15,44,99.43,44m0-2.74a.86.86,0,0,0-.39.08v2.3a.86.86,0,0,0,.33.06c.55,0,.83-.46.83-1.24s-.2-1.21-.77-1.21"/><rect class="cls-2" x="101.15" y="39.65" width="0.44" height="4.27"/><path class="cls-2" d="M102.49,40.43a.27.27,0,0,1,0-.53.27.27,0,0,1,0,.53m-.22,3.49,0-2.93h.44v2.93h-.44Z"/><path class="cls-2" d="M103.66,42.64c.05.66.34,1,.82,1a1.25,1.25,0,0,0,.67-.17l.11.32a1.53,1.53,0,0,1-.82.2c-.71,0-1.2-.48-1.2-1.53s.45-1.51,1.08-1.51,1,.46,1,1.43Zm.66-1.39c-.39,0-.68.35-.67,1.14l1.3-.21c0-.66-.24-.92-.62-.92"/><path class="cls-2" d="M106.95,44c-.77,0-1.19-.59-1.19-1.47s.48-1.54,1.17-1.54a1.47,1.47,0,0,1,.43.07V39.65h.44v4.11a1.54,1.54,0,0,1-.85.21m.41-2.68a1.16,1.16,0,0,0-.34-.05c-.62,0-.83.58-.83,1.22s.22,1.2.77,1.2a.69.69,0,0,0,.39-.08Z"/><path class="cls-2" d="M111.33,43.92l-1.14-1.75h0v1.75h-.45v-3.6a1.75,1.75,0,0,1,.86-.2,1,1,0,0,1,1.18,1.11,1,1,0,0,1-1,1h0l1.13,1.64Zm-.75-3.5a.81.81,0,0,0-.39.08v1.57a1.54,1.54,0,0,0,.3,0,.75.75,0,0,0,.83-.84c0-.57-.23-.84-.74-.84"/><path class="cls-2" d="M112.57,42.64c.05.66.34,1,.83,1a1.26,1.26,0,0,0,.66-.17l.12.32a1.55,1.55,0,0,1-.82.2c-.71,0-1.21-.48-1.21-1.53s.45-1.51,1.09-1.51,1,.46,1,1.43Zm.66-1.39c-.39,0-.68.35-.67,1.14l1.3-.21c0-.66-.24-.92-.62-.92"/><path class="cls-2" d="M115.29,44a1.11,1.11,0,0,1-.69-.2l.12-.31a.79.79,0,0,0,.53.17.49.49,0,0,0,.5-.51c0-.3-.15-.44-.45-.56-.53-.21-.63-.52-.63-.82a.78.78,0,0,1,.81-.8,1.07,1.07,0,0,1,.63.2l-.12.29a.72.72,0,0,0-.45-.16.43.43,0,0,0-.45.46c0,.28.19.42.45.53a.87.87,0,0,1-.25,1.72"/><path class="cls-2" d="M117,42.64c.05.66.34,1,.82,1a1.24,1.24,0,0,0,.66-.17l.12.32a1.54,1.54,0,0,1-.82.2c-.71,0-1.2-.48-1.2-1.53s.45-1.51,1.09-1.51,1,.46,1,1.43Zm.66-1.39c-.39,0-.68.35-.67,1.14l1.29-.21c0-.66-.24-.92-.62-.92"/><path class="cls-2" d="M120,44c-.7,0-1-.33-1-.87,0-.78.67-1,1.51-1.1v-.18c0-.45-.25-.58-.6-.58a1.4,1.4,0,0,0-.65.19l-.1-.28a1.63,1.63,0,0,1,.83-.22.85.85,0,0,1,.94,1v1.88a1.74,1.74,0,0,1-.9.21m.48-1.72c-.68.09-1.09.25-1.09.84,0,.43.24.6.64.6a.91.91,0,0,0,.45-.1Z"/><path class="cls-2" d="M122.59,41.31a.74.74,0,0,0-.62.05v2.56h-.44V41.15a2,2,0,0,1,1.17-.21Z"/><path class="cls-2" d="M123.91,44c-.59,0-1-.58-1-1.52s.44-1.52,1-1.52a.85.85,0,0,1,.6.19l-.11.28a.59.59,0,0,0-.4-.14c-.49,0-.68.48-.68,1.17s.23,1.19.67,1.19a.65.65,0,0,0,.41-.14l.11.3a.87.87,0,0,1-.61.2"/><path class="cls-2" d="M126.46,43.92V41.84a.5.5,0,0,0-.55-.57.91.91,0,0,0-.53.15v2.51h-.44V39.65h.44v1.49A1.24,1.24,0,0,1,126,41a.81.81,0,0,1,.9.86v2.09Z"/><path class="cls-2" d="M129.69,44c-.7,0-1-.33-1-.87,0-.78.67-1,1.51-1.1v-.18c0-.45-.25-.58-.59-.58a1.39,1.39,0,0,0-.65.19l-.11-.28a1.65,1.65,0,0,1,.83-.22.86.86,0,0,1,.95,1v1.88a1.77,1.77,0,0,1-.9.21m.48-1.72c-.68.09-1.09.25-1.09.84,0,.43.24.6.64.6a.88.88,0,0,0,.44-.1Z"/><path class="cls-2" d="M132.73,43.92v-2.1a.51.51,0,0,0-.57-.57,1.05,1.05,0,0,0-.51.11v2.57h-.44V41.14a2.1,2.1,0,0,1,1-.21c.75,0,1,.45,1,.87v2.11Z"/><path class="cls-2" d="M134.86,44c-.77,0-1.19-.59-1.19-1.47s.48-1.54,1.17-1.54a1.44,1.44,0,0,1,.42.07V39.65h.44v4.11a1.54,1.54,0,0,1-.85.21m.41-2.68a1.15,1.15,0,0,0-.34-.05c-.62,0-.83.58-.83,1.22s.22,1.2.77,1.2a.68.68,0,0,0,.39-.08Z"/><polygon class="cls-2" points="138.54 40.52 138.54 43.92 138.09 43.92 138.09 40.52 137.4 40.52 137.4 40.18 139.23 40.18 139.23 40.52 138.54 40.52"/><path class="cls-2" d="M140.55,41.31a.74.74,0,0,0-.62.05v2.56h-.44V41.15a2,2,0,0,1,1.17-.21Z"/><path class="cls-2" d="M141.81,44c-.7,0-1-.33-1-.87,0-.78.67-1,1.51-1.1v-.18c0-.45-.25-.58-.6-.58a1.39,1.39,0,0,0-.65.19l-.11-.28a1.67,1.67,0,0,1,.83-.22.85.85,0,0,1,.94,1v1.88a1.76,1.76,0,0,1-.9.21m.48-1.72c-.68.09-1.09.25-1.09.84,0,.43.24.6.64.6a.9.9,0,0,0,.45-.1Z"/><path class="cls-2" d="M143.57,40.43a.27.27,0,0,1,0-.53.27.27,0,0,1,0,.53m-.22,3.49,0-2.93h.44v2.93h-.44Z"/><path class="cls-2" d="M146,43.92v-2.1a.51.51,0,0,0-.57-.57,1.06,1.06,0,0,0-.51.11v2.57h-.44V41.14a2.1,2.1,0,0,1,1-.21c.75,0,1,.45,1,.87v2.11Z"/><path class="cls-2" d="M147.26,40.43a.27.27,0,0,1,0-.53.27.27,0,0,1,0,.53M147,43.92,147,41h.44v2.93H147Z"/><path class="cls-2" d="M149.63,43.92v-2.1a.51.51,0,0,0-.57-.57,1,1,0,0,0-.51.11v2.57h-.44V41.14a2.1,2.1,0,0,1,1-.21c.75,0,1,.45,1,.87v2.11Z"/><path class="cls-2" d="M151.57,45.15a1.61,1.61,0,0,1-.84-.2l.14-.32a1.26,1.26,0,0,0,.62.17c.5,0,.69-.33.69-.77v-.21a1.06,1.06,0,0,1-.54.13c-.64,0-1.06-.56-1.06-1.45s.42-1.57,1.23-1.57a1.39,1.39,0,0,1,.8.21V44c0,.74-.39,1.17-1,1.17m.61-3.84a.72.72,0,0,0-.39-.08c-.55,0-.78.49-.78,1.27s.22,1.18.74,1.18a.76.76,0,0,0,.42-.12Z"/><path class="cls-3" d="M12.66,51.83V62.22H10.83V51.83H8V50.12h7.39v1.72Z"/><path class="cls-3" d="M16,49h1.76v6.24a3,3,0,0,1,2.08-.85,2.69,2.69,0,0,1,2.07.84,3.41,3.41,0,0,1,.66,2.33v4.68H20.77V57.71a2.15,2.15,0,0,0-.33-1.33,1.25,1.25,0,0,0-1-.41,1.44,1.44,0,0,0-1.3.57,3.92,3.92,0,0,0-.37,2v3.69H16Z"/><path class="cls-3" d="M31,58.82H25.48a2.32,2.32,0,0,0,.61,1.5,1.87,1.87,0,0,0,1.39.55,1.8,1.8,0,0,0,1.09-.31,4.46,4.46,0,0,0,1-1.16l1.49.83a5.88,5.88,0,0,1-.73,1,3.89,3.89,0,0,1-.82.69,3.28,3.28,0,0,1-.95.4,4.6,4.6,0,0,1-1.11.13,3.6,3.6,0,0,1-2.75-1.1,4.12,4.12,0,0,1-1-2.93,4.23,4.23,0,0,1,1-2.93,3.46,3.46,0,0,1,2.68-1.11A3.43,3.43,0,0,1,30,55.45a4.23,4.23,0,0,1,1,3Zm-1.81-1.44A1.69,1.69,0,0,0,27.36,56a1.83,1.83,0,0,0-.6.1,1.73,1.73,0,0,0-.51.28,1.79,1.79,0,0,0-.4.44,2.05,2.05,0,0,0-.25.59Z"/><path class="cls-3" d="M42.68,51.83H38.46v2.91h4.07v1.72H38.46v5.76H36.63V50.12h6Z"/><path class="cls-3" d="M45.3,54.59V59q0,1.9,1.5,1.9t1.5-1.9V54.59h1.76V59a4.92,4.92,0,0,1-.23,1.58,2.66,2.66,0,0,1-.76,1.07,3.71,3.71,0,0,1-4.54,0,2.71,2.71,0,0,1-.78-1.07A4.38,4.38,0,0,1,43.53,59V54.59Z"/><path class="cls-3" d="M53.33,56.23v6H51.57v-6h-.75V54.59h.75v-2.8h1.76v2.8h1.37v1.65Z"/><path class="cls-3" d="M56.9,54.59V59q0,1.9,1.5,1.9T59.9,59V54.59h1.76V59a4.92,4.92,0,0,1-.23,1.58,2.66,2.66,0,0,1-.76,1.07,3.71,3.71,0,0,1-4.54,0,2.71,2.71,0,0,1-.78-1.07A4.38,4.38,0,0,1,55.14,59V54.59Z"/><path class="cls-3" d="M63.12,54.59h1.76v.68a3.35,3.35,0,0,1,.86-.7,2,2,0,0,1,.91-.2,2.85,2.85,0,0,1,1.46.45l-.81,1.62a1.69,1.69,0,0,0-1-.36q-1.44,0-1.44,2.18v4H63.12Z"/><path class="cls-3" d="M75.2,58.82H69.73a2.32,2.32,0,0,0,.61,1.5,1.87,1.87,0,0,0,1.39.55,1.8,1.8,0,0,0,1.09-.31,4.46,4.46,0,0,0,1-1.16l1.49.83a5.88,5.88,0,0,1-.73,1,3.88,3.88,0,0,1-.82.69,3.28,3.28,0,0,1-.95.4,4.6,4.6,0,0,1-1.11.13,3.6,3.6,0,0,1-2.75-1.1,4.12,4.12,0,0,1-1-2.93,4.23,4.23,0,0,1,1-2.93,3.83,3.83,0,0,1,5.35,0,4.23,4.23,0,0,1,1,3Zm-1.81-1.44A1.69,1.69,0,0,0,71.61,56a1.83,1.83,0,0,0-.6.1,1.73,1.73,0,0,0-.51.28,1.79,1.79,0,0,0-.4.44,2,2,0,0,0-.25.59Z"/><path class="cls-3" d="M80.18,58.35a3.79,3.79,0,0,1,1.18-2.82,4.18,4.18,0,0,1,5.79,0,4.09,4.09,0,0,1,0,5.75,4,4,0,0,1-2.92,1.15,3.88,3.88,0,0,1-2.88-1.18A4,4,0,0,1,80.18,58.35Zm1.8,0a2.58,2.58,0,0,0,.61,1.81,2.38,2.38,0,0,0,3.31,0,2.87,2.87,0,0,0,0-3.56,2.35,2.35,0,0,0-3.29,0A2.45,2.45,0,0,0,82,58.38Z"/><path class="cls-3" d="M91.25,56.23v6H89.48v-6h-.63V54.59h.63V51.64a3.2,3.2,0,0,1,.5-2,2.46,2.46,0,0,1,2-.83,3.46,3.46,0,0,1,1.18.27v1.8L93,50.75a2.21,2.21,0,0,0-.94-.29.64.64,0,0,0-.64.34,3.26,3.26,0,0,0-.16,1.27v2.52h1.92v1.65Z"/><path class="cls-3" d="M99.77,50.12V60.51h3.56v1.72H97.95V50.12Z"/><path class="cls-3" d="M110.92,58.82h-5.47a2.32,2.32,0,0,0,.61,1.5,1.87,1.87,0,0,0,1.39.55,1.8,1.8,0,0,0,1.09-.31,4.45,4.45,0,0,0,1-1.16l1.49.83a5.93,5.93,0,0,1-.73,1,3.86,3.86,0,0,1-.82.69,3.28,3.28,0,0,1-.95.4,4.6,4.6,0,0,1-1.11.13,3.6,3.6,0,0,1-2.75-1.1,4.12,4.12,0,0,1-1-2.93,4.23,4.23,0,0,1,1-2.93,3.83,3.83,0,0,1,5.35,0,4.23,4.23,0,0,1,1,3Zm-1.81-1.44A1.69,1.69,0,0,0,107.32,56a1.83,1.83,0,0,0-.6.1,1.72,1.72,0,0,0-.51.28,1.78,1.78,0,0,0-.4.44,2,2,0,0,0-.25.59Z"/><path class="cls-3" d="M117.71,54.59h1.77v7.64h-1.77v-.8a3.39,3.39,0,0,1-5-.13,4.26,4.26,0,0,1-1-2.92,4.13,4.13,0,0,1,1-2.86,3.31,3.31,0,0,1,2.57-1.15,3.25,3.25,0,0,1,2.39,1.1Zm-4.19,3.8a2.66,2.66,0,0,0,.59,1.79,1.93,1.93,0,0,0,1.52.7,2,2,0,0,0,1.59-.67,2.9,2.9,0,0,0,0-3.54,2,2,0,0,0-1.57-.68,2,2,0,0,0-1.52.69A2.55,2.55,0,0,0,113.52,58.38Z"/><path class="cls-3" d="M120.93,54.59h1.76v.68a3.36,3.36,0,0,1,.86-.7,2,2,0,0,1,.91-.2,2.84,2.84,0,0,1,1.46.45l-.81,1.62a1.69,1.69,0,0,0-1-.36q-1.44,0-1.44,2.18v4h-1.76Z"/><path class="cls-3" d="M126.41,54.59h1.77v.71a2.89,2.89,0,0,1,2.09-.92,2.64,2.64,0,0,1,2.08.84,3.44,3.44,0,0,1,.64,2.33v4.68h-1.77V58a2.79,2.79,0,0,0-.31-1.56,1.27,1.27,0,0,0-1.11-.44,1.36,1.36,0,0,0-1.25.58,4,4,0,0,0-.36,2v3.68h-1.77Z"/><path class="cls-3" d="M134.18,51.41a1.15,1.15,0,0,1,1.15-1.14,1.11,1.11,0,0,1,.82.34,1.09,1.09,0,0,1,.34.81,1.11,1.11,0,0,1-.34.82,1.09,1.09,0,0,1-.81.34,1.15,1.15,0,0,1-1.15-1.16Zm2,3.18v7.64h-1.76V54.59Z"/><path class="cls-3" d="M137.68,54.59h1.77v.71a2.89,2.89,0,0,1,2.09-.92,2.64,2.64,0,0,1,2.08.84,3.44,3.44,0,0,1,.64,2.33v4.68h-1.77V58a2.79,2.79,0,0,0-.31-1.56,1.27,1.27,0,0,0-1.11-.44,1.36,1.36,0,0,0-1.25.58,4,4,0,0,0-.36,2v3.68h-1.77Z"/><path class="cls-3" d="M153.1,62q0,.54,0,1a6.56,6.56,0,0,1-.1.73,3.23,3.23,0,0,1-.74,1.48,3.57,3.57,0,0,1-2.85,1.19,3.79,3.79,0,0,1-2.52-.83,3.38,3.38,0,0,1-1.18-2.35h1.77a2,2,0,0,0,.34.87,1.89,1.89,0,0,0,1.6.71q1.94,0,1.94-2.37V61.37a3.29,3.29,0,0,1-2.42,1.07,3.25,3.25,0,0,1-2.56-1.13,4.18,4.18,0,0,1-1-2.86,4.4,4.4,0,0,1,.93-2.84,3.24,3.24,0,0,1,2.65-1.24,3.08,3.08,0,0,1,2.4,1.07v-.86h1.76Zm-1.69-3.62a2.56,2.56,0,0,0-.6-1.78,2,2,0,0,0-1.54-.68,1.9,1.9,0,0,0-1.58.74,2.7,2.7,0,0,0-.53,1.72,2.67,2.67,0,0,0,.53,1.71,1.9,1.9,0,0,0,1.58.73,1.94,1.94,0,0,0,1.6-.74A2.62,2.62,0,0,0,151.41,58.42Z"/><path class="cls-4" d="M29.65,28.3a2.73,2.73,0,0,1,2.58.8l0,.09c-3.09.1-4.69,3.24-5.22,5-.7,2.24-2,8.59,9.56,10l-25,0s-.84-12,.59-17.87a23,23,0,0,1,7.26-12.18l.45,2.26a7.29,7.29,0,0,0-1.21,4.21,4,4,0,0,0,4.37,4.14c1.26-.2,3.91-2,5.49-1.93a4.11,4.11,0,0,1,3.18,2,3.47,3.47,0,0,1,.24,1.24c.12.13.47.67.57.82a2.51,2.51,0,0,1,.13,2.82,1.72,1.72,0,0,0-.33-.61"/><path class="cls-5" d="M30.5,25.6a2.54,2.54,0,0,0-2.92-.7l.09,0a3.88,3.88,0,0,1,2.71.63Z"/><path class="cls-5" d="M30.36,25.43s-.07,0-.24.05h0l0,0s-.42.78-1.06.67S28.3,25.06,28.3,25v0l-.06,0A1,1,0,0,0,28,24.9h-.18a2.18,2.18,0,0,1,.42.22l0-.07s.07,1.18.83,1.3,1.19-.71,1.21-.75l0,0c.1,0,.32-.09.29-.11Z"/><path class="cls-5" d="M28.67,24.85a.91.91,0,0,0,0,.21.72.72,0,0,0,.55.81c.32,0,.59-.28.62-.69Z"/><path class="cls-6" d="M32,29s-.53.5-1.68-.1a1.05,1.05,0,0,0,1.11.43l.69-.2Z"/><path class="cls-7" d="M22.54,11.29a53.82,53.82,0,0,0-10.46,15C8.26,34.63,8,40,8,40V44h7.38s-.92-7.83.17-13.86A55.8,55.8,0,0,1,19.12,18C19.75,16.66,22.54,11.29,22.54,11.29Z"/><path class="cls-8" d="M8.14,3.71a68.81,68.81,0,0,1,8,3.44c2.22,1.19,6.44,4.19,6.44,4.19a53.77,53.77,0,0,0-9.83,13.75,71.67,71.67,0,0,0-3.06,7.38c-.23.68-1.51,5.62-1.68,7S8.14,3.71,8.14,3.71Z"/><path class="cls-9" d="M23.57,10.12s2.23-3.27,3.6-4.82c2-2.22,3-3.31,3-3.31H35.3a39.76,39.76,0,0,0-5.87,3.52C27.58,6.89,25.66,8.36,23.57,10.12Z"/><path class="cls-10" d="M8.81,2.11a69.29,69.29,0,0,1,7,3,44.39,44.39,0,0,1,7.8,5s2.77-3.86,3.6-4.82,3-3.31,3-3.31Z"/><path class="cls-11" d="M23.57,10.12A44.9,44.9,0,0,1,29,5.72C31.36,4.25,34.51,2.24,35.14,2a1.82,1.82,0,0,1,1.3.17l-.08,21.59a58.33,58.33,0,0,0-6.92-8.55A43.08,43.08,0,0,0,23.57,10.12Z"/><rect class="cls-12" x="8.02" y="2.04" width="28.47" height="42.13"/></svg>