<svg xmlns="http://www.w3.org/2000/svg" xmlns:xlink="http://www.w3.org/1999/xlink" viewBox="0 0 397.09 93.11"><defs><style>.cls-1{fill:#009640;}.cls-2{fill:#1d1d1b;}.cls-3,.cls-8{fill:#fff;}.cls-4{fill:#f5f5f5;}.cls-5{fill:url(#linear-gradient);}.cls-6{fill:none;stroke:#1d1d1b;stroke-width:0.43px;}.cls-7{fill:#e30613;}.cls-8{stroke:#fff;stroke-width:0.96px;}</style><linearGradient id="linear-gradient" x1="6111.92" y1="341.9" x2="6154.14" y2="299.68" gradientTransform="translate(-6090.26 -264.72)" gradientUnits="userSpaceOnUse"><stop offset="0" stop-color="#575756"/><stop offset="0.06" stop-color="#757574"/><stop offset="0.15" stop-color="#9f9f9e"/><stop offset="0.25" stop-color="#c1c1c1"/><stop offset="0.35" stop-color="#dcdcdc"/><stop offset="0.45" stop-color="#f0f0f0"/><stop offset="0.55" stop-color="#fbfbfb"/><stop offset="0.66" stop-color="#fff"/></linearGradient></defs><title>Asset 1</title><g id="Layer_2" data-name="Layer 2"><g id="Layer_1-2" data-name="Layer 1"><path d="M6.12,74.42c20.81,3.21,30.66,2.71,43.75,1.08,14.39-1.8,27.71-2.15,38.61-1.08v16c-13.27-1-30.56-.25-41.18,1.58-7.78,1.34-28.19,2-41.18-1.58Z"/><path class="cls-1" d="M3.31,70.48C24.12,73.68,34,73.19,47.07,71.55c14.39-1.8,27.71-2.15,38.61-1.08v16c-13.27-1-30.56-.25-41.18,1.58-7.78,1.34-28.19,2-41.18-1.58Z"/><rect class="cls-2" x="105.24" y="49.88" width="291.81" height="1.48"/><path class="cls-2" d="M108.55,26.48c-2.64,0-3.12-1.46-3.15-4.32l-.09-8.62L107,12c.35-.06.51.35.67.61v9.7a2.08,2.08,0,0,0,.86,1.24H111v2.92Z"/><path class="cls-2" d="M110.62,26.48V23.55h5.82v2.92Z"/><path class="cls-2" d="M116.06,26.48V23.55h5.82v2.92Z"/><path class="cls-2" d="M121.5,26.48V23.55h5.82v2.92Z"/><path class="cls-2" d="M126.94,26.48V23.55h5.82v2.92Z"/><path class="cls-2" d="M132.37,26.48V23.55h5.82v2.92Z"/><path class="cls-2" d="M137.81,26.48V23.55h5.82v2.92Z"/><path class="cls-2" d="M143.25,26.48V23.55h5.82v2.92Z"/><path class="cls-2" d="M157.53,26.48h-8.84V23.55H156c.26-.25-.06-.6-.06-.83l-1.24-2,.06-.25,1.5-2.42c.92.25,1,1.3,1.33,2.07a14.31,14.31,0,0,1,.51,5.79C158,26.22,157.69,26.32,157.53,26.48Zm-1.14,5.44h-.25a10.5,10.5,0,0,1-1.34-1.34h-.19l-1.15,1.34a9,9,0,0,1-1.84-1.78l1.24-1.56c.83,0,1.62,1.91,2.35.57.25-.19.32-.76.83-.57L157.63,30v.38C157.15,30.9,156.89,31.37,156.38,31.92Z"/><path class="cls-2" d="M163.67,26.48h-5.75V23.55h6.49l.19-.35c-.06-3-.51-5.92-.67-8.9l1.84-2.1a7.92,7.92,0,0,1,.57,2.83c.16,3.59.09,7.34.09,10.94C165.83,26.8,164.59,26.48,163.67,26.48Z"/><path class="cls-2" d="M177.06,26.48c-1.24-.16-2.06-1.18-3.08-1.84-2.07,1.59-4.67,1.84-7.92,1.84V23.55c2.26-.16,4.86.51,6.42-1.18-.06-.73-.92-1.14-1.56-1.4h-1.37c-.16-.25.19-.45.19-.76.89-1,1.08-3.18,3-3a4.4,4.4,0,0,1,4.2,2.1c.32,1.08-.51,1.94-.92,2.86a2.25,2.25,0,0,0,1.84,1.4h1.75v2.92Z"/><path class="cls-2" d="M184.95,26.48h-5.76V23.55h6.49l.19-.35c-.06-3-.51-5.92-.67-8.9L187,12.2a8,8,0,0,1,.57,2.83c.16,3.59.1,7.34.1,10.94C187.11,26.8,185.87,26.48,184.95,26.48Z"/><path class="cls-2" d="M191.06,26.64c-.19-.09-.19-.32-.19-.57.09-3.75-.57-7.19-.67-11,0-1.24,1.18-2.07,1.84-3,.19-.1.25.1.25.19.1,4,.76,7.76.51,11.7A8.78,8.78,0,0,1,191.06,26.64Z"/><path class="cls-2" d="M209.75,26.48c-1.34-.25-1.91-1.84-2.1-2.92l-.16-.83-.51.83a2.85,2.85,0,0,1-1,1.5,6.79,6.79,0,0,1-4-1.4,4.75,4.75,0,0,1,1.43-4,11.85,11.85,0,0,1,3-1.56.83.83,0,0,0-.09-.86l1.27-1.91.06-.06.26.57c.41,2.26.51,4.68,1.08,6.84a2.57,2.57,0,0,0,2.1.92v2.92ZM208.51,14h-.22a9,9,0,0,1-1.37-1.33h-.16L205.59,14a9.45,9.45,0,0,1-1.81-1.75L205,10.61c.82,0,1.59,1.94,2.35.57.22-.16.32-.73.79-.57L209.79,12v.38C209.28,12.93,209,13.44,208.51,14Zm-1.78,5.18L205,20c-.38.35-1,.51-1.24,1,.1.16.25.16.35.25,1,.41,2,1.14,3.18.73A10.69,10.69,0,0,0,206.73,19.13Z"/><path class="cls-2" d="M210.71,26.48V23.55h5.82v2.92Z"/><path class="cls-2" d="M215.35,26.48V23.55h5.82v2.92Z"/><path class="cls-2" d="M220.79,26.48V23.55h5.82v2.92Z"/><path class="cls-2" d="M226.23,26.48V23.55h5.82v2.92Z"/><path class="cls-2" d="M231.67,26.48V23.55h5.82v2.92Z"/><path class="cls-2" d="M237.11,26.48V23.55h5.82v2.92Z"/><path class="cls-2" d="M251.38,26.48h-8.84V23.55h7.31c.26-.25-.06-.6-.06-.83l-1.24-2,.06-.25,1.5-2.42c.92.25,1,1.3,1.33,2.07a14.28,14.28,0,0,1,.51,5.79C251.89,26.22,251.54,26.32,251.38,26.48Zm-1.14,5.44H250a10.52,10.52,0,0,1-1.34-1.34h-.19l-1.14,1.34a9,9,0,0,1-1.84-1.78l1.24-1.56c.83,0,1.62,1.91,2.35.57.25-.19.31-.76.83-.57L251.48,30v.38C251,30.9,250.75,31.37,250.24,31.92Z"/><path class="cls-2" d="M260.61,26.48h-8.84V23.55h7.31c.25-.25-.06-.6-.06-.83l-1.24-2,.06-.25,1.49-2.42c.92.25,1,1.3,1.33,2.07a14.28,14.28,0,0,1,.51,5.79C261.12,26.22,260.77,26.32,260.61,26.48Zm-2.35-11.25h-.41L255.58,14V13.7L256.67,12h.45c.73.41,1.4.92,2.16,1.37A7.58,7.58,0,0,1,258.26,15.22Z"/><path class="cls-2" d="M260.8,26.48V23.55h5.82c-1.24-.92-3.72-1.24-3.5-3.43.7-1.56,1.59-3.59,3.37-4.16,1.72,0,2.71,1.84,3.4,3.09,1.14,2.1.66,5,.66,7.44Zm7.25-11h-.25a8.92,8.92,0,0,1-1.34-1.34h-.19l-1.18,1.34a9.31,9.31,0,0,1-1.81-1.75l1.24-1.59c.83,0,1.62,1.94,2.35.57.25-.16.32-.73.83-.57l1.59,1.43V14C268.78,14.43,268.56,14.94,268.05,15.44Zm-1.14,3c-.51-.64-1.53-.38-2,0a1.36,1.36,0,0,0-.26.92,11.45,11.45,0,0,0,3.53,1.94A9.62,9.62,0,0,0,266.91,18.43Z"/><path class="cls-2" d="M279,26.48h-8.84V23.55h7.31c.25-.25-.06-.6-.06-.83l-1.24-2,.06-.25,1.5-2.42c.92.25,1,1.3,1.33,2.07a14.31,14.31,0,0,1,.51,5.79C279.53,26.22,279.18,26.32,279,26.48Zm-1.59-11h-.26a8.92,8.92,0,0,1-1.34-1.34h-.19l-1.18,1.34a9.26,9.26,0,0,1-1.81-1.75l1.24-1.59c.83,0,1.62,1.94,2.35.57.25-.16.32-.73.83-.57l1.59,1.43V14C278.17,14.43,277.94,14.94,277.44,15.44Z"/><path class="cls-2" d="M285.1,26.48h-5.75V23.55h6.49l.19-.35c-.06-3-.51-5.92-.67-8.9l1.84-2.1a8,8,0,0,1,.57,2.83c.16,3.59.1,7.34.1,10.94C287.26,26.8,286,26.48,285.1,26.48Z"/><path class="cls-2" d="M291.21,26.64c-.19-.09-.19-.32-.19-.57.09-3.75-.57-7.19-.67-11,0-1.24,1.18-2.07,1.84-3,.19-.1.25.1.25.19.1,4,.76,7.76.51,11.7A8.79,8.79,0,0,1,291.21,26.64Z"/><path class="cls-2" d="M314.23,28.16c-3.24.32-7.38,1-10.33-.44a3.25,3.25,0,0,1-1.78-3.28,7.39,7.39,0,0,1,1.43-3.56c.09,0,.25-.16.35-.1-.1,1.18-.73,2.48.16,3.43,1.78,1.88,4.67,1.34,7.19,1.34,1.43-.26,2.92-.19,4.16-.86-.16-1-1.17-1.65-1.65-2.48a15.14,15.14,0,0,1,1.4-2.51,3.53,3.53,0,0,1,1.69,2.51,11.75,11.75,0,0,1,.25,4.26C316.58,27.56,315.34,27.91,314.23,28.16Zm-2.87-7.92h-.25a10.51,10.51,0,0,1-1.34-1.34h-.19l-1.14,1.34a8.94,8.94,0,0,1-1.84-1.78l1.27-1.56c.8,0,1.59,1.91,2.32.57.25-.19.32-.76.83-.57l1.59,1.43v.38C312.13,19.23,311.88,19.71,311.36,20.24Z"/><path class="cls-2" d="M322.82,26.48c-2.64,0-3.11-1.46-3.15-4.32l-.09-8.62L321.26,12c.35-.06.51.35.67.61v9.7a2.06,2.06,0,0,0,.86,1.24h2.48v2.92Z"/><path class="cls-2" d="M324.89,26.48V23.55h5.82v2.92Z"/><path class="cls-2" d="M330.33,26.48V23.55h5.82v2.92Z"/><path class="cls-2" d="M335.76,26.48V23.55h5.82v2.92Z"/><path class="cls-2" d="M341.2,26.48V23.55H347v2.92Z"/><path class="cls-2" d="M346.64,26.48V23.55h5.82v2.92Z"/><path class="cls-2" d="M352.08,26.48V23.55h5.82v2.92Z"/><path class="cls-2" d="M357.52,26.48V23.55h5.82v2.92Z"/><path class="cls-2" d="M363,26.48V23.55h5.82v2.92Z"/><path class="cls-2" d="M377.23,26.48h-8.84V23.55h7.31c.25-.25-.06-.6-.06-.83l-1.24-2,.06-.25,1.5-2.42c.92.25,1,1.3,1.34,2.07a14.28,14.28,0,0,1,.51,5.79C377.74,26.22,377.39,26.32,377.23,26.48Zm-1.14,5.44h-.25a10.64,10.64,0,0,1-1.34-1.34h-.19l-1.14,1.34a8.83,8.83,0,0,1-1.84-1.78l1.24-1.56c.83,0,1.62,1.91,2.35.57.26-.19.32-.76.83-.57L377.33,30v.38C376.85,30.9,376.6,31.37,376.09,31.92Z"/><path class="cls-2" d="M383.63,5.72a1.16,1.16,0,0,1-1.27.35l-.25-.16c-.42.41-.48,1.08-1.15,1.31a1,1,0,0,1-1.08-.64,3.53,3.53,0,0,1,0-1.91l.16-.1c.09.41,0,1.08.51,1.33s.76-.19.89-.51a4.14,4.14,0,0,0,.35-1.59l.16-.06c.16.38.25.83.76,1,.26.13.51-.13.57-.38a3.64,3.64,0,0,0,.19-1.33l.25-.1C383.95,3.76,384.3,5.06,383.63,5.72Z"/><path class="cls-2" d="M383.37,26.48h-5.76V23.55h6.49l.19-.35c-.06-3-.51-5.92-.67-8.9l1.85-2.1A8.08,8.08,0,0,1,386,15c.16,3.59.09,7.34.09,10.94C385.54,26.8,384.3,26.48,383.37,26.48Z"/><path class="cls-2" d="M385.76,26.48V23.55h8.08V23.2a24.48,24.48,0,0,0-4.1-3.15c-.16-.09-.32.16-.48.32-.76-.67-1.81-1.4-1.69-2.51.35-2.83,3.53-3.66,5.69-4.48a15,15,0,0,1,3.6-.76l-.1.41c-.42.57-.42,1.68-1.34,1.84a27.23,27.23,0,0,0-6,2.26,49.2,49.2,0,0,1,6.93,5.34c1.24.92.51,2.77.67,4Z"/><path class="cls-2" d="M110.88,41.58c-1.47.13-2.37.21-2.68.21a4.77,4.77,0,0,1-2.16-.42,1.45,1.45,0,0,1-.83-1.53,3.46,3.46,0,0,1,.67-1.67s0,0,.07,0,.07,0,.09,0,0,.26-.09.51a2.51,2.51,0,0,0-.06.49.85.85,0,0,0,.22.61,2.74,2.74,0,0,0,2,.65l.67,0,.66,0,1-.12a2.77,2.77,0,0,0,.94-.28,1.27,1.27,0,0,0-.33-.61c-.27-.31-.42-.51-.45-.55a12.25,12.25,0,0,1,.66-1.18,1.73,1.73,0,0,1,.79,1.18,4.83,4.83,0,0,1,.12,2A1.8,1.8,0,0,1,110.88,41.58Zm-1.52,2.77h-.19c-.13-.1-.47-.34-1.06-.71a2,2,0,0,1,.24-.48l.31-.45a3.82,3.82,0,0,1,.6.3c.37.22.57.34.61.36v.16Z"/><path class="cls-2" d="M116.35,40.68l-.14.1h-4.13V39.42h3.42a.18.18,0,0,0,0-.19.87.87,0,0,1-.06-.19l-.58-.94,0-.12.7-1.13a.62.62,0,0,1,.41.4c.08.18.13.37.21.57a9.67,9.67,0,0,1,.3,2,3.37,3.37,0,0,1-.06.7A.28.28,0,0,1,116.35,40.68Zm-.6,2.58h-.12a6.24,6.24,0,0,1-.63-.63h-.09l-.55.63a3.89,3.89,0,0,1-.85-.82l.58-.74a.82.82,0,0,1,.42.24.93.93,0,0,0,.4.25.34.34,0,0,0,.28-.22.89.89,0,0,0,.12-.15c.06-.09.12-.13.18-.13l.09,0,.74.67v.18Q116.16,42.79,115.76,43.26Z"/><path class="cls-2" d="M121,40.36a4,4,0,0,1-1.65,3.32,1.27,1.27,0,0,1-.71.19,1.46,1.46,0,0,1-.88-.27,2.67,2.67,0,0,1-1.25-1.68l0,0a2.81,2.81,0,0,0,1.67.63,2,2,0,0,0,.42,0c.64-.13,1.19-.68,1.68-1.65,0,0,0,0,0-.06a1.34,1.34,0,0,0-.37-.79c-.19-.24-.4-.48-.61-.71a7,7,0,0,1,.6-1.28.86.86,0,0,1,.54.45l.31.65A4.14,4.14,0,0,1,121,40.36Z"/><path class="cls-2" d="M125.15,41.1l-.36.12a6.78,6.78,0,0,0-.88.15,4,4,0,0,1-.93.15,1.36,1.36,0,0,1-.85-.27.15.15,0,0,0,0-.09s-.09-.16-.18-.45a2.88,2.88,0,0,1,.28-1.68c.09.24.17.49.27.73a.52.52,0,0,0,.62.36,8.12,8.12,0,0,0,.82-.06,2,2,0,0,0,.71-.25,3.14,3.14,0,0,0-.34-1.06c-.33-.67-.47-1-.49-1,.09-.19.28-.58.6-1.13a.42.42,0,0,1,.31.31,8.83,8.83,0,0,1,.77,3.68A.61.61,0,0,1,125.15,41.1Z"/><path class="cls-2" d="M129.58,40.68l-.14.1h-4.13V39.42h3.42a.17.17,0,0,0,0-.19.88.88,0,0,1-.06-.19l-.58-.94,0-.12.7-1.13a.62.62,0,0,1,.41.4c.08.18.13.37.21.57a9.67,9.67,0,0,1,.3,2,3.48,3.48,0,0,1-.06.7A.28.28,0,0,1,129.58,40.68Zm-.88-5.06h-.12A6.45,6.45,0,0,1,128,35h-.09l-.55.63a4.66,4.66,0,0,1-.85-.82l.58-.74a.81.81,0,0,1,.42.24c.19.16.33.25.42.25s.19-.07.27-.22a.77.77,0,0,0,.12-.15c.06-.09.12-.13.18-.13a.18.18,0,0,1,.09,0l.74.67v.19C129.17,35.08,129,35.31,128.71,35.63Z"/><path class="cls-2" d="M129.6,40.79V39.42h2.72v1.37Z"/><path class="cls-2" d="M132.14,40.79V39.42h2.72v1.37Z"/><path class="cls-2" d="M134.68,40.79V39.42h2.73v1.37Z"/><path class="cls-2" d="M137.22,40.79V39.42h2.72v1.37Z"/><path class="cls-2" d="M139.77,40.79V39.42h2.72v1.37Z"/><path class="cls-2" d="M142.31,40.79V39.42H145v1.37Z"/><path class="cls-2" d="M148.24,40.82c.43,0,.19,0-.7,0h-2.69V39.42h3l.09-.16c0-.52-.06-1.21-.15-2.08s-.15-1.73-.16-2.08l.86-1a1.4,1.4,0,0,1,.19.63c0,.24.06.48.08.7,0,.64,0,2.35,0,5.12A.74.74,0,0,1,148.24,40.82Z"/><path class="cls-2" d="M150.4,40.86q-.09,0-.09-.27a21.55,21.55,0,0,0-.12-2.56c-.12-1.21-.19-2.07-.19-2.58a1.18,1.18,0,0,1,.31-.74c.18-.22.37-.43.55-.65.07,0,.12,0,.12.09,0,.46.06,1.23.15,2.3s.12,1.74.12,2.29c0,.3,0,.59,0,.88A5,5,0,0,1,150.4,40.86Z"/><path class="cls-2" d="M156.42,39.84a5.2,5.2,0,0,1-.68,2.6c-.58,1-1.3,1.52-2.11,1.44a3.61,3.61,0,0,1-2.41-1.77l0,0a4.13,4.13,0,0,0,1.8.43,2.56,2.56,0,0,0,1.2-.28,3.55,3.55,0,0,0,1.34-1.41.5.5,0,0,1-.25,0c-.1,0-.15,0-.15,0-.31-.07-.64-.13-1-.22a1.1,1.1,0,0,1-.74-.6,2.07,2.07,0,0,1-.06-.55,3.62,3.62,0,0,1,.88-2.28,1.27,1.27,0,0,1,.57-.22.52.52,0,0,1,.21,0,2.22,2.22,0,0,1,1.14,1.52A4.58,4.58,0,0,1,156.42,39.84Zm-1.62-1.4a.36.36,0,0,0-.46.09.65.65,0,0,0-.16.46,2,2,0,0,0,1.26.43c.12,0,.16-.06.12-.16A6.49,6.49,0,0,0,154.8,38.44Z"/><path class="cls-2" d="M164.22,40.79c-.5-.1-.83-.55-1-1.37l-.07-.39-.24.39a1.18,1.18,0,0,1-.47.7,3.08,3.08,0,0,1-1.87-.65,2.07,2.07,0,0,1,.67-1.89,2.74,2.74,0,0,1,.68-.42l.73-.31a.41.41,0,0,0,0-.4l.62-.92.12.27c.07.73.25,1.79.5,3.2a1.32,1.32,0,0,0,1,.43v1.37Zm-.58-5.86h-.1a5.05,5.05,0,0,1-.64-.63h-.07l-.55.63a3.71,3.71,0,0,1-.85-.82l.58-.74a.8.8,0,0,1,.42.24c.18.16.31.25.4.25s.19-.07.29-.22l.1-.15c.08-.09.14-.13.19-.13s.06,0,.07,0l.76.67v.18A8.74,8.74,0,0,1,163.64,34.93Zm-.83,2.42-.79.39-.33.21a.54.54,0,0,0-.25.27.72.72,0,0,1,.16.12c.2.07.39.16.58.25a1.29,1.29,0,0,0,.57.15.88.88,0,0,0,.34-.06A6.41,6.41,0,0,0,162.81,37.35Z"/><path class="cls-2" d="M168.94,40.68l-.14.1h-4.14V39.42h3.42a.17.17,0,0,0,0-.19.85.85,0,0,1-.06-.19l-.58-.94,0-.12.7-1.13a.62.62,0,0,1,.42.4c.07.18.13.37.21.57a10,10,0,0,1,.29,2,3.78,3.78,0,0,1-.06.7A.28.28,0,0,1,168.94,40.68Zm-.67,2.65h-.12a6.19,6.19,0,0,1-.63-.63h-.09l-.54.63a4.81,4.81,0,0,1-.86-.83l.58-.73A.83.83,0,0,1,167,42c.19.16.32.25.42.25s.19-.07.27-.22a1.17,1.17,0,0,0,.12-.15.24.24,0,0,1,.19-.13l.07,0,.74.67v.18C168.73,42.78,168.54,43,168.27,43.33Z"/><path class="cls-2" d="M169,40.79V39.42h2.72c-.36-.19-.71-.37-1.07-.58a1,1,0,0,1-.57-1c.49-1.12,1-1.77,1.58-1.95a1.3,1.3,0,0,1,1,.51,5.3,5.3,0,0,1,.6.94,3.73,3.73,0,0,1,.37,1.84c0,.19,0,.46,0,.83s0,.64,0,.8Zm3.39-5.16h-.12a6.45,6.45,0,0,1-.62-.63h-.09l-.55.63a4.6,4.6,0,0,1-.85-.82l.58-.74a.81.81,0,0,1,.42.24c.19.16.33.25.42.25s.19-.07.27-.22a.72.72,0,0,0,.12-.15c.06-.09.12-.13.18-.13a.2.2,0,0,1,.09,0l.74.67v.19C172.83,35.08,172.64,35.31,172.37,35.63Zm-.21,2a2,2,0,0,0-.33-.62.5.5,0,0,0-.42-.18.89.89,0,0,0-.54.18.57.57,0,0,0-.12.43,2.79,2.79,0,0,0,.82.55l.83.36C172.35,38.14,172.25,37.9,172.16,37.65Z"/><path class="cls-2" d="M177.64,40.68l-.13.1h-4.14V39.42h3.42a.17.17,0,0,0,0-.19,1.08,1.08,0,0,1-.06-.19l-.58-.94,0-.12.7-1.13a.63.63,0,0,1,.42.4c.07.18.13.37.21.57a9.73,9.73,0,0,1,.3,2,3.5,3.5,0,0,1-.06.7A.27.27,0,0,1,177.64,40.68ZM177,43.33h-.12a6,6,0,0,1-.63-.63h-.09l-.53.63a4.76,4.76,0,0,1-.86-.83l.58-.73a.82.82,0,0,1,.42.24c.19.16.32.25.41.25s.2-.07.27-.22a1,1,0,0,0,.12-.15.23.23,0,0,1,.19-.13l.08,0,.74.67v.18C177.43,42.78,177.24,43,177,43.33Z"/><path class="cls-2" d="M181.95,40.68l-.13.1h-4.14V39.42h3.42a.17.17,0,0,0,0-.19.89.89,0,0,1-.06-.19l-.58-.94,0-.12.7-1.13a.63.63,0,0,1,.42.4c.07.18.13.37.21.57a9.73,9.73,0,0,1,.3,2,3.25,3.25,0,0,1-.06.7A.25.25,0,0,1,181.95,40.68Zm-.47,2.56h-.19l-1.06-.54v-.16l.52-.77h.19l.49.3a5.7,5.7,0,0,0,.52.31A3.35,3.35,0,0,1,181.47,43.24Z"/><path class="cls-2" d="M182,40.79V39.42h.46a1.54,1.54,0,0,0,1-.22,2.08,2.08,0,0,0,.18-.92c0-.13,0-.37,0-.68a4.72,4.72,0,0,1,0-.73,3.09,3.09,0,0,0-.13-.8,3.47,3.47,0,0,1-.17-.79.94.94,0,0,1,.37-.77,2.16,2.16,0,0,0,.2-.27.27.27,0,0,1,.27-.12,7.55,7.55,0,0,1,.82,1.21,1.33,1.33,0,0,1-.25.42.85.85,0,0,0-.21.45.48.48,0,0,0,0,.15,2,2,0,0,1,.06.52,3.58,3.58,0,0,1-.15.94c-.07.3-.16.6-.24.89.1-.06.55-.39,1.35-1a4.11,4.11,0,0,1,1.43-.79,1.61,1.61,0,0,1,1.44.86,3.24,3.24,0,0,1,.34,1.65c0,.13,0,.36,0,.67s0,.56,0,.73Zm5.45-2.25-.61-.21a1,1,0,0,0-.37-.06,1.9,1.9,0,0,0-1,.34c-.31.21-.6.43-.89.64a9.76,9.76,0,0,0,1.72.15,6.31,6.31,0,0,0,1.47-.15.39.39,0,0,0,.22-.34A1.5,1.5,0,0,0,187.41,38.54Z"/><path class="cls-2" d="M188.47,40.79V39.42h2.72v1.37Z"/><path class="cls-2" d="M191,40.79V39.42h2.72v1.37Z"/><path class="cls-2" d="M193.2,40.79V39.42h2.72v1.37Z"/><path class="cls-2" d="M195.74,40.79V39.42h2.72v1.37Z"/><path class="cls-2" d="M198.29,40.79V39.42H201v1.37Z"/><path class="cls-2" d="M200.83,40.79V39.42h2.72v1.37Z"/><path class="cls-2" d="M203.37,40.79V39.42h2.72v1.37Z"/><path class="cls-2" d="M205.91,40.79V39.42h2.72v1.37Z"/><path class="cls-2" d="M208.46,40.79V39.42h2.72v1.37Z"/><path class="cls-2" d="M211,40.79V39.42h2.72v1.37Z"/><path class="cls-2" d="M217.81,40.68l-.13.1h-4.14V39.42H217a.18.18,0,0,0,0-.19.83.83,0,0,1-.06-.19l-.58-.94,0-.12.7-1.13a.63.63,0,0,1,.41.4c.07.18.13.37.21.57a9.75,9.75,0,0,1,.3,2,3.49,3.49,0,0,1-.06.7A.27.27,0,0,1,217.81,40.68Zm-.88-5.06h-.12a6.41,6.41,0,0,1-.62-.63h-.09l-.55.63a4.54,4.54,0,0,1-.85-.82l.58-.74a.8.8,0,0,1,.42.24c.19.16.33.25.42.25s.19-.07.27-.22a.79.79,0,0,0,.12-.15c.06-.09.12-.13.18-.13a.19.19,0,0,1,.09,0l.74.67v.19C217.4,35.08,217.2,35.31,216.93,35.63Z"/><path class="cls-2" d="M217.83,40.79V39.42h2.72v1.37Z"/><path class="cls-2" d="M220.36,40.79V39.42h2.72v1.37Z"/><path class="cls-2" d="M222.91,40.79V39.42h2.72v1.37Z"/><path class="cls-2" d="M228.84,40.82c.43,0,.19,0-.7,0h-2.69V39.42h3l.09-.16c0-.52-.06-1.21-.15-2.08s-.15-1.73-.16-2.08l.86-1a1.4,1.4,0,0,1,.19.63c0,.24.06.48.08.7,0,.64,0,2.35,0,5.12A.73.73,0,0,1,228.84,40.82Z"/><path class="cls-2" d="M231,40.86c-.06,0-.09-.12-.09-.27a22.34,22.34,0,0,0-.12-2.56c-.12-1.21-.19-2.07-.19-2.58a1.18,1.18,0,0,1,.31-.74c.18-.22.37-.43.55-.65.08,0,.12,0,.12.09,0,.46.06,1.23.15,2.3s.12,1.74.12,2.29c0,.3,0,.59,0,.88A4.83,4.83,0,0,1,231,40.86Z"/><path class="cls-2" d="M241.69,41.58c-1.47.13-2.37.21-2.68.21a4.79,4.79,0,0,1-2.16-.42,1.44,1.44,0,0,1-.83-1.53,3.48,3.48,0,0,1,.67-1.67s0,0,.07,0,.08,0,.09,0,0,.26-.09.51a2.49,2.49,0,0,0-.06.49.85.85,0,0,0,.22.61,2.74,2.74,0,0,0,2,.65l.67,0,.65,0,1-.12a2.77,2.77,0,0,0,.93-.28,1.28,1.28,0,0,0-.33-.61c-.27-.31-.42-.51-.45-.55a11.72,11.72,0,0,1,.65-1.18,1.72,1.72,0,0,1,.79,1.18,4.79,4.79,0,0,1,.12,2C242.87,41.15,242.42,41.41,241.69,41.58Zm-1-3.84c-.28-.15-.73-.34-1.34-.59l-.46.67a5.74,5.74,0,0,1-1.27-.7,4.16,4.16,0,0,1,.55-.86l1.18.63a1,1,0,0,0,.31-.31,2.22,2.22,0,0,1,.24-.34l1.28.58v.07Zm-1.29-1.41h-.21l-1-.7a6,6,0,0,1,.55-.94l1.21.67v.16Z"/><path class="cls-2" d="M245.7,40.79a1.28,1.28,0,0,1-1.19-.51,3.17,3.17,0,0,1-.28-1.52l0-4L245,34c.09,0,.19.08.31.28v4.54a.92.92,0,0,0,.4.58h1.16v1.37Z"/><path class="cls-2" d="M246.67,40.79V39.42h2.72v1.37Z"/><path class="cls-2" d="M249.21,40.79V39.42h2.72v1.37Z"/><path class="cls-2" d="M251.75,40.79V39.42h2.73v1.37Z"/><path class="cls-2" d="M254.29,40.79V39.42H257v1.37Z"/><path class="cls-2" d="M256.84,40.79V39.42h2.73v1.37Z"/><path class="cls-2" d="M259.38,40.79V39.42h2.72v1.37Z"/><path class="cls-2" d="M261.92,40.79V39.42h2.72v1.37Z"/><path class="cls-2" d="M264.47,40.79V39.42h2.72v1.37Z"/><path class="cls-2" d="M267,40.79V39.42h2.72v1.37Z"/><path class="cls-2" d="M269.55,40.79V39.42h2.72v1.37Z"/><path class="cls-2" d="M272.09,40.79V39.42h5.27a.69.69,0,0,0,.25-.12,5,5,0,0,0-1-1,2,2,0,0,0-1.37-.49,2.12,2.12,0,0,0-1,.25s0-.12,0-.31a2.15,2.15,0,0,1,1.71-1,1.82,1.82,0,0,1,.4,0,3.32,3.32,0,0,1,1.52.88c.45.42.86.88,1.31,1.31a1.26,1.26,0,0,0,.92.39v1.37Z"/><path class="cls-2" d="M284.19,40.68l-.14.1h-4.14V39.42h3.42a.17.17,0,0,0,0-.19,1.08,1.08,0,0,1-.06-.19l-.58-.94,0-.12.7-1.13a.63.63,0,0,1,.42.4c.07.18.13.37.21.57a9.72,9.72,0,0,1,.29,2,3.48,3.48,0,0,1-.06.7A.27.27,0,0,1,284.19,40.68Zm-.48,2.56h-.19l-1.06-.54v-.16l.52-.77h.19l.49.3a5.27,5.27,0,0,0,.52.31A3.48,3.48,0,0,1,283.71,43.24Z"/><path class="cls-2" d="M287.07,32.34c0,.13-.1.22-.31.3a2.41,2.41,0,0,0-.47.19l-.67.55c-.07,0-.12,0-.12-.07a2,2,0,0,1,.19-.43l-.28-.13a.23.23,0,0,1-.15-.22,1.65,1.65,0,0,1,.27-.74.92.92,0,0,1,.57-.42,1.7,1.7,0,0,1,.63.06,1.82,1.82,0,0,1-.12.31l-.46,0a.55.55,0,0,0-.35.13c-.14.14-.21.24-.21.31a.19.19,0,0,0,0,.12.66.66,0,0,0,.43.15,1.27,1.27,0,0,0,.52-.13l.46-.21A.57.57,0,0,1,287.07,32.34Z"/><path class="cls-2" d="M291,40.79a1.4,1.4,0,0,1-.91-.86c-.06-.15-.18-.56-.34-1.25-.21.42-.42.83-.63,1.27a2.61,2.61,0,0,1-1.05.92,6.42,6.42,0,0,1-2.43.19.36.36,0,0,1-.16-.07c0-.07.12-.14.31-.19l1.08-.31a4.78,4.78,0,0,0,1-.48,1.28,1.28,0,0,0,.37-1,2.05,2.05,0,0,0-.13-.73c-.26-.4-.42-.67-.49-.77a3,3,0,0,0-.61-.67s-.09.06-.17.15-.13.15-.18.15l-.07,0c-.33-.33-.54-.54-.62-.64a1.27,1.27,0,0,1-.31-.77.87.87,0,0,1,0-.27s.06-.16.17-.46a.71.71,0,0,1,.3-.4,1.61,1.61,0,0,1,.8.43c.08.07.29.31.64.72a4,4,0,0,1,1,3.66l.45-.46a1,1,0,0,0,.27-.51,12.49,12.49,0,0,0,.11-1.73c0-.86,0-1.43,0-1.71a3.14,3.14,0,0,1,.73-.67l.09.07a9.93,9.93,0,0,1,.07,1.31v.73a6.28,6.28,0,0,0,.18,1.71,2.1,2.1,0,0,0,1,1.29v1.37Z"/><path class="cls-2" d="M294.66,40.82c.43,0,.2,0-.7,0h-2.69V39.42h3l.09-.16c0-.52-.06-1.21-.15-2.08s-.15-1.73-.17-2.08l.86-1a1.4,1.4,0,0,1,.19.63c0,.24.06.48.07.7,0,.64,0,2.35,0,5.12A.74.74,0,0,1,294.66,40.82Z"/><path class="cls-2" d="M305.46,40.82a2.88,2.88,0,0,1-.68,1.8,3.61,3.61,0,0,1-1.55,1.18,4,4,0,0,1-1.46.27,2.47,2.47,0,0,1-1.4-.34,2.39,2.39,0,0,1-1-2.17,6.87,6.87,0,0,1,0-.73v-.06a5.45,5.45,0,0,1,.64-1.85s.06,0,.15,0a8.3,8.3,0,0,1-.21.94,3.88,3.88,0,0,0-.15,1l0,0a1.79,1.79,0,0,0,.7,1.53,2.84,2.84,0,0,0,1.33.31,4,4,0,0,0,2.71-1.13.4.4,0,0,0,.12-.19.79.79,0,0,0,0-.27c0-.16,0-.24,0-.25l-1.41,0c-.61-.12-1-.36-1.09-.74a2.46,2.46,0,0,1-.06-.57,3.85,3.85,0,0,1,.88-2.33,1,1,0,0,1,.78-.49,1,1,0,0,1,.21,0,1.7,1.7,0,0,1,.91,1,9.46,9.46,0,0,1,.37,1.31,5.28,5.28,0,0,1,.09,1.83Zm-1.88-5.19h-.12a6.23,6.23,0,0,1-.62-.63h-.09l-.54.63a4.14,4.14,0,0,1-.87-.82l.58-.74a.8.8,0,0,1,.42.24c.19.16.33.25.42.25s.19-.07.27-.22a.79.79,0,0,0,.12-.15c.06-.09.12-.13.19-.13l.08,0,.74.67v.19C304,35.08,303.85,35.31,303.59,35.63Zm.15,2.74a.43.43,0,0,0-.53.06A.56.56,0,0,0,303,39a1.59,1.59,0,0,0,1.32.43c.1,0,.15,0,.12-.07A1.61,1.61,0,0,0,303.74,38.36Z"/><path class="cls-2" d="M310.71,39.84a5.16,5.16,0,0,1-.69,2.6c-.58,1-1.29,1.52-2.11,1.44a3.61,3.61,0,0,1-2.41-1.77l0,0a4.15,4.15,0,0,0,1.8.43,2.56,2.56,0,0,0,1.2-.28,3.53,3.53,0,0,0,1.34-1.41.5.5,0,0,1-.25,0c-.11,0-.15,0-.15,0-.31-.07-.64-.13-1-.22a1.1,1.1,0,0,1-.74-.6,2.23,2.23,0,0,1-.06-.55,3.6,3.6,0,0,1,.88-2.28,1.26,1.26,0,0,1,.57-.22.51.51,0,0,1,.21,0,2.23,2.23,0,0,1,1.15,1.52A4.58,4.58,0,0,1,310.71,39.84Zm-1.62-1.4a.36.36,0,0,0-.46.09.63.63,0,0,0-.16.46,1.94,1.94,0,0,0,1.26.43c.12,0,.16-.06.12-.16A6.52,6.52,0,0,0,309.09,38.44Z"/><path class="cls-2" d="M310.48,40.79V39.42h2.72c-.36-.19-.72-.37-1.07-.58a1,1,0,0,1-.57-1c.49-1.12,1-1.77,1.58-1.95a1.32,1.32,0,0,1,1,.51,5.69,5.69,0,0,1,.59.94,3.69,3.69,0,0,1,.37,1.84c0,.19,0,.46,0,.83s0,.64,0,.8ZM313.42,35a9.28,9.28,0,0,1-1.29-.52,4.17,4.17,0,0,1,.39-1,2.19,2.19,0,0,1,.67.18c.21.07.42.16.63.25A3.54,3.54,0,0,1,313.42,35Zm.25,2.68a2.06,2.06,0,0,0-.33-.62.5.5,0,0,0-.42-.18.9.9,0,0,0-.54.18.59.59,0,0,0-.12.43,2.82,2.82,0,0,0,.82.55l.83.36C313.85,38.14,313.76,37.9,313.67,37.65Z"/><path class="cls-2" d="M319.14,40.68l-.14.1h-4.14V39.42h3.42a.17.17,0,0,0,0-.19,1,1,0,0,1-.06-.19l-.58-.94,0-.12.7-1.13a.62.62,0,0,1,.42.4c.07.18.13.37.21.57a9.85,9.85,0,0,1,.3,2,3.62,3.62,0,0,1-.06.7A.27.27,0,0,1,319.14,40.68Zm-.88-5.06h-.12a6.26,6.26,0,0,1-.63-.63h-.09l-.55.63a4.6,4.6,0,0,1-.85-.82l.58-.74a.83.83,0,0,1,.42.24c.19.16.33.25.41.25s.19-.07.27-.22a.89.89,0,0,0,.12-.15c.06-.09.12-.13.18-.13a.18.18,0,0,1,.09,0l.75.67v.19Z"/><path class="cls-2" d="M319.15,40.79V39.42h2.72v1.37Z"/><path class="cls-2" d="M321.7,40.79V39.42h2.72v1.37Z"/><path class="cls-2" d="M324.23,40.79V39.42H327v1.37Z"/><path class="cls-2" d="M326.78,40.79V39.42h2.72v1.37Z"/><path class="cls-2" d="M329.32,40.79V39.42H332v1.37Z"/><path class="cls-2" d="M331.86,40.79V39.42h2.72v1.37Z"/><path class="cls-2" d="M334.41,40.79V39.42h2.72v1.37Z"/><path class="cls-2" d="M336.95,40.79V39.42h2.72v1.37Z"/><path class="cls-2" d="M339.49,40.79V39.42h2.72v1.37Z"/><path class="cls-2" d="M342,40.79V39.42h2.72v1.37Z"/><path class="cls-2" d="M348,40.82c.43,0,.19,0-.7,0h-2.69V39.42h3l.09-.16c0-.52-.06-1.21-.15-2.08s-.15-1.73-.17-2.08l.86-1a1.43,1.43,0,0,1,.19.63c0,.24.06.48.07.7,0,.64,0,2.35,0,5.12A.74.74,0,0,1,348,40.82Z"/><path class="cls-2" d="M350.12,40.86q-.09,0-.09-.27a21.08,21.08,0,0,0-.12-2.56c-.12-1.21-.19-2.07-.19-2.58a1.2,1.2,0,0,1,.31-.74c.18-.22.37-.43.55-.65.07,0,.12,0,.12.09,0,.46.06,1.23.15,2.3s.12,1.74.12,2.29c0,.3,0,.59,0,.88A5,5,0,0,1,350.12,40.86Z"/><path class="cls-2" d="M358.48,40.36a4,4,0,0,1-1.65,3.32,1.28,1.28,0,0,1-.71.19,1.46,1.46,0,0,1-.88-.27A2.67,2.67,0,0,1,354,41.92l0,0a2.8,2.8,0,0,0,1.67.63,1.94,1.94,0,0,0,.42,0c.64-.13,1.19-.68,1.68-1.65,0,0,0,0,0-.06a1.34,1.34,0,0,0-.37-.79c-.19-.24-.4-.48-.61-.71a7,7,0,0,1,.6-1.28.86.86,0,0,1,.54.45l.31.65A4.19,4.19,0,0,1,358.48,40.36Zm-1.65-4a11.81,11.81,0,0,1-1.28-.51,4.14,4.14,0,0,1,.39-1,2.1,2.1,0,0,1,.65.16l.64.27A3.71,3.71,0,0,1,356.83,36.37Z"/><path class="cls-2" d="M358.3,40.79V39.42H361v1.37Z"/><path class="cls-2" d="M360.84,40.79V39.42h2.72v1.37Z"/><path class="cls-2" d="M363.38,40.79V39.42h2.72v1.37Z"/><path class="cls-2" d="M365.92,40.79V39.42h2.72v1.37Z"/><path class="cls-2" d="M368.47,40.79V39.42h2.72v1.37Z"/><path class="cls-2" d="M371,40.79V39.42h2.72v1.37Z"/><path class="cls-2" d="M373.55,40.79V39.42h2.72v1.37Z"/><path class="cls-2" d="M376.1,40.79V39.42h2.72v1.37Z"/><path class="cls-2" d="M378.64,40.79V39.42h2.72v1.37Z"/><path class="cls-2" d="M381.18,40.79V39.42H385v-.16A11.34,11.34,0,0,0,383,37.78s-.09,0-.22.15c-.3-.25-.48-.43-.55-.51a.84.84,0,0,1-.24-.67,1.91,1.91,0,0,1,1-1.4,10.39,10.39,0,0,1,1.65-.7,11.33,11.33,0,0,1,1.68-.36l0,.19c-.07.16-.15.34-.22.51a.58.58,0,0,1-.4.36c-.49.15-1,.28-1.44.45a6.53,6.53,0,0,0-1.37.61l1.65,1.16a13,13,0,0,1,1.59,1.34,1,1,0,0,1,.34.85c0,.07,0,.25,0,.54a2.45,2.45,0,0,0,0,.49Z"/><path class="cls-2" d="M390.94,40.36a4,4,0,0,1-1.65,3.32,1.28,1.28,0,0,1-.71.19,1.46,1.46,0,0,1-.88-.27,2.69,2.69,0,0,1-1.25-1.68l0,0a2.81,2.81,0,0,0,1.67.63,1.93,1.93,0,0,0,.42,0c.64-.13,1.19-.68,1.68-1.65,0,0,0,0,0-.06a1.38,1.38,0,0,0-.37-.79c-.19-.24-.4-.48-.61-.71a7,7,0,0,1,.6-1.28.85.85,0,0,1,.54.45l.31.65A4.14,4.14,0,0,1,390.94,40.36Z"/><path class="cls-2" d="M396.23,40.71l-.77,0c-.37,0-.64,0-.82,0a2,2,0,0,1-1.8-.79,1.7,1.7,0,0,1-1.62.82l-.46,0V39.42l.5,0a3.92,3.92,0,0,0,.52,0,1.44,1.44,0,0,0,1.44-.76c.19-.4.42-.77.61-1.16a1.2,1.2,0,0,1,1.12-.62,2,2,0,0,1,.58.74,16.2,16.2,0,0,1,.79,2.23A2.25,2.25,0,0,1,396.23,40.71Zm-1.47-2.28c-.14-.15-.37-.18-.7-.07-.27.27-.4.45-.4.55a2.2,2.2,0,0,0,1.44.39A1.14,1.14,0,0,0,394.76,38.44Z"/><path class="cls-2" d="M117.1,73.36h-2.64V67.21h-6.62v6.15h-2.64V59.05h2.64v6h6.62v-6h2.64Z"/><path class="cls-2" d="M120.16,59.07h2.42v2.44h-2.42Zm2.42,3.86V73.36h-2.42V62.93Z"/><path class="cls-2" d="M135.09,72.67c0,.46,0,.85,0,1.19a6.8,6.8,0,0,1-.11.88,3.24,3.24,0,0,1-.19.64,1.79,1.79,0,0,1-.31.48,2.36,2.36,0,0,1-.54.47,2.43,2.43,0,0,1-.71.3,6.23,6.23,0,0,1-1,.16c-.36,0-.79.05-1.27.05h-5V74.95h5a7.48,7.48,0,0,0,.89,0,.91.91,0,0,0,.5-.2.83.83,0,0,0,.22-.48,5.43,5.43,0,0,0,.06-.86h-2.42c-.46,0-.85,0-1.19,0a5.84,5.84,0,0,1-.9-.14,3.66,3.66,0,0,1-.73-.26,4.06,4.06,0,0,1-.68-.42,4.9,4.9,0,0,1-1.82-4.24,6.8,6.8,0,0,1,.41-2.41,4.54,4.54,0,0,1,1.18-1.79,4.07,4.07,0,0,1,.71-.54,3.92,3.92,0,0,1,.81-.35,5,5,0,0,1,1-.19c.36,0,.79-.05,1.27-.05h4.78Zm-4.63-7.84a4.38,4.38,0,0,0-1.53.21,2,2,0,0,0-.91.73,3.91,3.91,0,0,0-.42,1.09,6.1,6.1,0,0,0-.16,1.41,4.7,4.7,0,0,0,.19,1.39,2.77,2.77,0,0,0,.56,1,2.05,2.05,0,0,0,.85.58,4,4,0,0,0,1.29.17h2.34V64.84Z"/><path class="cls-2" d="M140.53,62.93h2.66a9.16,9.16,0,0,1,2.15.21,3,3,0,0,1,1.39.72,2.91,2.91,0,0,1,.76,1.32,7.34,7.34,0,0,1,.24,2v6.17H145.3v-6a6,6,0,0,0-.11-1.25,1.62,1.62,0,0,0-.37-.77,1.39,1.39,0,0,0-.73-.4,5.42,5.42,0,0,0-1.19-.11h-2.38v8.53h-2.42V59.07h2.42Z"/><path class="cls-2" d="M158.63,69h-6.17a4.08,4.08,0,0,0,.2,1.13,1.94,1.94,0,0,0,.55.78,2.09,2.09,0,0,0,.83.42,6,6,0,0,0,1.35.12h3.24v1.91h-3.68a11.12,11.12,0,0,1-1.28-.07,4.43,4.43,0,0,1-1-.22,3.55,3.55,0,0,1-.81-.41,4.18,4.18,0,0,1-.71-.61,4.85,4.85,0,0,1-.91-1.6,6,6,0,0,1-.35-2,7.07,7.07,0,0,1,.44-2.52,4.64,4.64,0,0,1,1.19-1.85A4.06,4.06,0,0,1,153,63.2a7.34,7.34,0,0,1,2.14-.27h3.47v1.91h-3.19a3.6,3.6,0,0,0-2.13.49,2.55,2.55,0,0,0-.82,1.78h6.15Z"/><path class="cls-2" d="M164.54,62.93a9.16,9.16,0,0,1,2,.17,2.69,2.69,0,0,1,1.2.62,2.25,2.25,0,0,1,.65,1.06,7.12,7.12,0,0,1,.18,1.83v1h-2.31v-.81a2.24,2.24,0,0,0-.4-1.53,2,2,0,0,0-1.47-.42h-.83v8.48h-2.42V62.93Z"/><path class="cls-2" d="M186.79,73.36h-4.67a14.94,14.94,0,0,1-1.69-.09,7.63,7.63,0,0,1-1.35-.27,5,5,0,0,1-1.08-.47,4.58,4.58,0,0,1-.89-.7,5.84,5.84,0,0,1-1.39-2.33,10,10,0,0,1-.49-3.21,9.57,9.57,0,0,1,.76-3.91,5,5,0,0,1,3.81-3.1,12,12,0,0,1,2.31-.2h4.69v2.16h-4.45a6.35,6.35,0,0,0-2,.27,2.78,2.78,0,0,0-1.25.86,4.53,4.53,0,0,0-.69,1.59,9.25,9.25,0,0,0-.26,2.25,8.28,8.28,0,0,0,.34,2.51,3.58,3.58,0,0,0,1,1.63,2.74,2.74,0,0,0,1.2.66,7.4,7.4,0,0,0,1.89.19h4.3Z"/><path class="cls-2" d="M193.84,62.8a5.24,5.24,0,0,1,3.92,1.42,5.5,5.5,0,0,1,1.39,4,6.08,6.08,0,0,1-.37,2.2,4.46,4.46,0,0,1-1.08,1.65,4.75,4.75,0,0,1-1.71,1,6.66,6.66,0,0,1-2.27.36,5.45,5.45,0,0,1-4-1.37,5.17,5.17,0,0,1-1.4-3.88,5.36,5.36,0,0,1,1.46-4A5.51,5.51,0,0,1,193.84,62.8Zm-.15,1.91a2.57,2.57,0,0,0-2.13.9,4.11,4.11,0,0,0-.72,2.62,3.73,3.73,0,0,0,.74,2.51,2.69,2.69,0,0,0,2.15.85q2.91,0,2.91-3.38a3.94,3.94,0,0,0-.75-2.61A2.73,2.73,0,0,0,193.69,64.71Z"/><path class="cls-2" d="M201.46,73.36V59.07h2.42V73.36Z"/><path class="cls-2" d="M206.91,73.36V59.07h2.42V73.36Z"/><path class="cls-2" d="M220.38,69h-6.17a4.07,4.07,0,0,0,.21,1.13,1.89,1.89,0,0,0,.55.78,2.09,2.09,0,0,0,.83.42,6,6,0,0,0,1.35.12h3.24v1.91h-3.68a11.1,11.1,0,0,1-1.29-.07,4.4,4.4,0,0,1-1-.22,3.6,3.6,0,0,1-.81-.41,4.25,4.25,0,0,1-.71-.61,4.85,4.85,0,0,1-.91-1.6,6,6,0,0,1-.35-2,7.11,7.11,0,0,1,.44-2.52,4.68,4.68,0,0,1,1.19-1.85,4.06,4.06,0,0,1,1.52-.87,7.37,7.37,0,0,1,2.14-.27h3.47v1.91h-3.19a3.6,3.6,0,0,0-2.13.49,2.54,2.54,0,0,0-.82,1.78h6.15Z"/><path class="cls-2" d="M232.39,72.67q0,.68,0,1.19a7.49,7.49,0,0,1-.11.88,3.11,3.11,0,0,1-.2.64,1.74,1.74,0,0,1-.31.48,2.35,2.35,0,0,1-.53.47,2.45,2.45,0,0,1-.71.3,6.23,6.23,0,0,1-1,.16c-.36,0-.79.05-1.28.05h-5V74.95h5a7.5,7.5,0,0,0,.89,0,.91.91,0,0,0,.5-.2.84.84,0,0,0,.22-.48,5.45,5.45,0,0,0,.05-.86h-2.42q-.68,0-1.19,0a5.78,5.78,0,0,1-.9-.14,3.64,3.64,0,0,1-.73-.26,4.22,4.22,0,0,1-.68-.42,4.91,4.91,0,0,1-1.82-4.24,6.8,6.8,0,0,1,.41-2.41,4.54,4.54,0,0,1,1.18-1.79,4.06,4.06,0,0,1,.71-.54,3.92,3.92,0,0,1,.81-.35,5.06,5.06,0,0,1,1-.19q.55-.05,1.27-.05h4.78Zm-4.63-7.84a4.37,4.37,0,0,0-1.53.21,2,2,0,0,0-.91.73,3.91,3.91,0,0,0-.42,1.09,6,6,0,0,0-.16,1.41,4.7,4.7,0,0,0,.19,1.39,2.73,2.73,0,0,0,.56,1,2.06,2.06,0,0,0,.85.58,4,4,0,0,0,1.29.17H230V64.84Z"/><path class="cls-2" d="M243.42,69h-6.17a4.09,4.09,0,0,0,.2,1.13,1.93,1.93,0,0,0,.55.78,2.09,2.09,0,0,0,.83.42,6,6,0,0,0,1.35.12h3.23v1.91h-3.68a11.14,11.14,0,0,1-1.28-.07,4.5,4.5,0,0,1-1-.22,3.5,3.5,0,0,1-.81-.41,4.18,4.18,0,0,1-.71-.61,4.82,4.82,0,0,1-.91-1.6,6,6,0,0,1-.35-2,7.1,7.1,0,0,1,.44-2.52,4.71,4.71,0,0,1,1.19-1.85,4.05,4.05,0,0,1,1.52-.87,7.38,7.38,0,0,1,2.14-.27h3.47v1.91h-3.19a3.6,3.6,0,0,0-2.13.49,2.55,2.55,0,0,0-.83,1.78h6.15Z"/><path class="cls-2" d="M254.69,64.84h-4.86a9.15,9.15,0,0,0-1.09,0,1,1,0,0,0-.88,1.16,1.72,1.72,0,0,0,.08.59.69.69,0,0,0,.3.35,1.48,1.48,0,0,0,.6.17,9.23,9.23,0,0,0,1,0h1.54l1,0a5.26,5.26,0,0,1,.76.09,2.51,2.51,0,0,1,.56.17,2.88,2.88,0,0,1,.45.26,2.19,2.19,0,0,1,.73,1,3.73,3.73,0,0,1,.26,1.42,4,4,0,0,1-.42,1.84,2.25,2.25,0,0,1-1.13,1.11,2.49,2.49,0,0,1-.86.23c-.34,0-.87.05-1.56.05h-5.7V71.45h5c.44,0,.78,0,1,0a2.34,2.34,0,0,0,.56-.09q.57-.15.58-1c0-.59-.2-.94-.6-1.07a2.23,2.23,0,0,0-.44-.06c-.19,0-.49,0-.91,0h-1.26c-.46,0-.84,0-1.15,0a7.3,7.3,0,0,1-.81-.1,2.37,2.37,0,0,1-.59-.18,2.29,2.29,0,0,1-.48-.31,3,3,0,0,1-.79-1.12,3.67,3.67,0,0,1-.3-1.47,3.42,3.42,0,0,1,.35-1.54,2.52,2.52,0,0,1,1-1.07,2.84,2.84,0,0,1,.94-.33,8.48,8.48,0,0,1,1.44-.1h5.63Z"/><path class="cls-2" d="M267.8,62.8a5.23,5.23,0,0,1,3.92,1.42,5.5,5.5,0,0,1,1.39,4,6,6,0,0,1-.38,2.2,4.38,4.38,0,0,1-1.08,1.65,4.77,4.77,0,0,1-1.71,1,6.66,6.66,0,0,1-2.27.36,5.45,5.45,0,0,1-4-1.37,5.17,5.17,0,0,1-1.4-3.88,5.36,5.36,0,0,1,1.46-4A5.51,5.51,0,0,1,267.8,62.8Zm-.15,1.91a2.57,2.57,0,0,0-2.13.9,4.11,4.11,0,0,0-.72,2.62,3.73,3.73,0,0,0,.74,2.51,2.69,2.69,0,0,0,2.15.85q2.91,0,2.91-3.38a3.94,3.94,0,0,0-.75-2.61A2.73,2.73,0,0,0,267.65,64.71Z"/><path class="cls-2" d="M274.37,64.84V62.93h1.86v-.54a3.52,3.52,0,0,1,.77-2.53,3.28,3.28,0,0,1,2.44-.79h2.31V61h-1.67a1.61,1.61,0,0,0-1.13.3,1.57,1.57,0,0,0-.3,1.11v.54h3v1.91h-3v8.53h-2.42V64.84Z"/><path class="cls-2" d="M287.63,61.24V59.07h12.25v2.16H295V73.36h-2.64V61.24Z"/><path class="cls-2" d="M307.7,69h-6.17a4.17,4.17,0,0,0,.2,1.13,2,2,0,0,0,.55.78,2.09,2.09,0,0,0,.83.42,6,6,0,0,0,1.35.12h3.23v1.91H304a11.14,11.14,0,0,1-1.28-.07,4.48,4.48,0,0,1-1-.22,3.54,3.54,0,0,1-.81-.41,4.32,4.32,0,0,1-.71-.61,4.84,4.84,0,0,1-.91-1.6,5.93,5.93,0,0,1-.35-2,7.11,7.11,0,0,1,.44-2.52,4.71,4.71,0,0,1,1.19-1.85,4.06,4.06,0,0,1,1.52-.87,7.36,7.36,0,0,1,2.14-.27h3.47v1.91h-3.19a3.59,3.59,0,0,0-2.13.49,2.56,2.56,0,0,0-.83,1.78h6.15Z"/><path class="cls-2" d="M318.43,64.84h-3.36a3.14,3.14,0,0,0-2.39.77A3.76,3.76,0,0,0,312,68.2a3.28,3.28,0,0,0,1,2.7,2.18,2.18,0,0,0,.86.43,5.92,5.92,0,0,0,1.39.13h3.21v1.91h-3.6a8.12,8.12,0,0,1-2.45-.3,3.72,3.72,0,0,1-1.57-1,5,5,0,0,1-1-1.67,6.31,6.31,0,0,1-.35-2.14A5.56,5.56,0,0,1,311,64.15a3.91,3.91,0,0,1,1.55-.94,7.83,7.83,0,0,1,2.32-.28h3.6Z"/><path class="cls-2" d="M322.84,62.93h2.66a9.15,9.15,0,0,1,2.15.21,3,3,0,0,1,1.39.72,2.9,2.9,0,0,1,.76,1.32,7.35,7.35,0,0,1,.24,2v6.17h-2.42v-6a6,6,0,0,0-.11-1.25,1.64,1.64,0,0,0-.37-.77,1.39,1.39,0,0,0-.73-.4,5.42,5.42,0,0,0-1.19-.11h-2.38v8.53h-2.42V59.07h2.42Z"/><path class="cls-2" d="M338.05,62.93a6.67,6.67,0,0,1,2,.25,3,3,0,0,1,1.28.84,4.43,4.43,0,0,1,.88,3v6.3h-2.42V67a2.46,2.46,0,0,0-.46-1.69,2.09,2.09,0,0,0-1.57-.49h-2.46v8.53h-2.42V62.93Z"/><path class="cls-2" d="M349.9,62.8a5.23,5.23,0,0,1,3.92,1.42,5.5,5.5,0,0,1,1.39,4,6,6,0,0,1-.38,2.2,4.39,4.39,0,0,1-1.08,1.65,4.77,4.77,0,0,1-1.71,1,6.66,6.66,0,0,1-2.27.36,5.44,5.44,0,0,1-4-1.37,5.16,5.16,0,0,1-1.4-3.88,5.37,5.37,0,0,1,1.46-4A5.52,5.52,0,0,1,349.9,62.8Zm-.15,1.91a2.56,2.56,0,0,0-2.13.9,4.1,4.1,0,0,0-.72,2.62,3.72,3.72,0,0,0,.74,2.51,2.69,2.69,0,0,0,2.15.85q2.91,0,2.91-3.38a3.94,3.94,0,0,0-.75-2.61A2.74,2.74,0,0,0,349.74,64.71Z"/><path class="cls-2" d="M357.52,73.36V59.07h2.42V73.36Z"/><path class="cls-2" d="M367.74,62.8a5.24,5.24,0,0,1,3.92,1.42,5.51,5.51,0,0,1,1.39,4,6.08,6.08,0,0,1-.37,2.2,4.41,4.41,0,0,1-1.08,1.65,4.81,4.81,0,0,1-1.71,1,6.66,6.66,0,0,1-2.27.36,5.45,5.45,0,0,1-4-1.37,5.18,5.18,0,0,1-1.4-3.88,5.38,5.38,0,0,1,1.46-4A5.53,5.53,0,0,1,367.74,62.8Zm-.15,1.91a2.57,2.57,0,0,0-2.13.9,4.12,4.12,0,0,0-.72,2.62,3.72,3.72,0,0,0,.74,2.51,2.69,2.69,0,0,0,2.15.85q2.91,0,2.92-3.38a3.94,3.94,0,0,0-.75-2.61A2.74,2.74,0,0,0,367.59,64.71Z"/><path class="cls-2" d="M384.85,72.67q0,.68,0,1.19a6.75,6.75,0,0,1-.11.88,3.15,3.15,0,0,1-.19.64,1.84,1.84,0,0,1-.31.48,2.39,2.39,0,0,1-.54.47,2.46,2.46,0,0,1-.71.3,6.23,6.23,0,0,1-1,.16q-.55.05-1.27.05h-5V74.95h5a7.44,7.44,0,0,0,.89,0,.9.9,0,0,0,.5-.2.84.84,0,0,0,.22-.48,5.47,5.47,0,0,0,.05-.86H380q-.68,0-1.19,0a5.75,5.75,0,0,1-.9-.14,3.61,3.61,0,0,1-.73-.26,4,4,0,0,1-.67-.42,4.9,4.9,0,0,1-1.82-4.24,6.81,6.81,0,0,1,.4-2.41,4.56,4.56,0,0,1,1.18-1.79,4.06,4.06,0,0,1,.71-.54,4,4,0,0,1,.82-.35,5,5,0,0,1,1-.19c.36,0,.79-.05,1.27-.05h4.78Zm-4.63-7.84a4.35,4.35,0,0,0-1.53.21,2,2,0,0,0-.91.73,3.91,3.91,0,0,0-.42,1.09,6.09,6.09,0,0,0-.16,1.41,4.63,4.63,0,0,0,.19,1.39,2.72,2.72,0,0,0,.56,1,2,2,0,0,0,.85.58,4,4,0,0,0,1.3.17h2.33V64.84Z"/><path class="cls-2" d="M394.57,62.93H397v9.4a5.1,5.1,0,0,1-1,3.6,2.73,2.73,0,0,1-.56.43,3.34,3.34,0,0,1-.7.29,4.74,4.74,0,0,1-.93.16q-.53,0-1.24,0h-4.84V74.95h4.78a7.78,7.78,0,0,0,1.11-.05,1.16,1.16,0,0,0,.54-.22.82.82,0,0,0,.31-.42,4.61,4.61,0,0,0,.12-.89h-2.74a6.2,6.2,0,0,1-2.06-.28,3,3,0,0,1-1.33-.94,2.75,2.75,0,0,1-.38-.56,2.59,2.59,0,0,1-.21-.66,7.8,7.8,0,0,1-.11-.91c0-.35,0-.78,0-1.3V62.93h2.42v6a7.64,7.64,0,0,0,.09,1.25,1.74,1.74,0,0,0,.31.79,1.2,1.2,0,0,0,.6.41,3.15,3.15,0,0,0,.93.12h2.51Z"/><path class="cls-2" d="M112.07,88h-2.53a9.1,9.1,0,0,1-1-.05,4.3,4.3,0,0,1-.81-.16,2.66,2.66,0,0,1-.64-.29,2.73,2.73,0,0,1-.53-.43,3.54,3.54,0,0,1-.77-1.33,5.43,5.43,0,0,1-.28-1.77,5.85,5.85,0,0,1,.11-1.11,5.22,5.22,0,0,1,.3-1,3.85,3.85,0,0,1,.47-.84,2.87,2.87,0,0,1,.61-.62,2.79,2.79,0,0,1,1-.43,6.8,6.8,0,0,1,1.48-.14h2.61v1h-2.53c-.28,0-.53,0-.74,0a2.39,2.39,0,0,0-.54.11,1.47,1.47,0,0,0-.72.51,2.84,2.84,0,0,0-.48,1.06,5.65,5.65,0,0,0-.17,1.44,4.46,4.46,0,0,0,.19,1.38,2.75,2.75,0,0,0,.55,1,1.67,1.67,0,0,0,.34.28,1.6,1.6,0,0,0,.42.18,3.13,3.13,0,0,0,.54.1,6.82,6.82,0,0,0,.72,0h2.42Z"/><path class="cls-2" d="M117.71,85.45h-3.57a2.39,2.39,0,0,0,.1.73,1.39,1.39,0,0,0,.32.52,1.2,1.2,0,0,0,.53.3,3.51,3.51,0,0,0,.91.09h1.72v1h-2a6.18,6.18,0,0,1-.68,0,3.59,3.59,0,0,1-.53-.09,1.54,1.54,0,0,1-.42-.17,2.12,2.12,0,0,1-.36-.27,2.56,2.56,0,0,1-.6-1,3.89,3.89,0,0,1-.21-1.35,3.6,3.6,0,0,1,.34-1.64,2.45,2.45,0,0,1,1-1.07,2.33,2.33,0,0,1,.76-.29,5,5,0,0,1,1-.09h1.72v1h-1.54a4.24,4.24,0,0,0-.85.07,1.48,1.48,0,0,0-.59.25,1.28,1.28,0,0,0-.38.45,2.43,2.43,0,0,0-.21.69h3.57Z"/><path class="cls-2" d="M121.84,82.09a2,2,0,0,1,2.41,2.41V88H123V84.63a3.27,3.27,0,0,0-.07-.74,1.19,1.19,0,0,0-.24-.5.9.9,0,0,0-.43-.27,2.35,2.35,0,0,0-.65-.08h-1.37v5h-1.2v-6Z"/><path class="cls-2" d="M126.34,79.88h1.2v2.2h1.73v1h-1.73v3.11a3.26,3.26,0,0,0,0,.5.46.46,0,0,0,.14.28.56.56,0,0,0,.31.13,3.71,3.71,0,0,0,.54,0h.7v1h-1.14a3.8,3.8,0,0,1-.87-.07,1.13,1.13,0,0,1-.83-.82,3.38,3.38,0,0,1-.09-.89V83H125.2v-1h1.14Z"/><path class="cls-2" d="M131.95,82.09a5.14,5.14,0,0,1,1.15.1,1.52,1.52,0,0,1,.68.35,1.26,1.26,0,0,1,.37.61,3.91,3.91,0,0,1,.11,1v.59h-1.11v-.59a1.29,1.29,0,0,0-.22-.88,1.17,1.17,0,0,0-.85-.23h-.46v5h-1.2v-6Z"/><path class="cls-2" d="M139.82,85.45h-3.57a2.33,2.33,0,0,0,.1.73,1.39,1.39,0,0,0,.32.52,1.2,1.2,0,0,0,.53.3,3.54,3.54,0,0,0,.91.09h1.71v1h-2a6.07,6.07,0,0,1-.68,0,3.64,3.64,0,0,1-.53-.09,1.55,1.55,0,0,1-.41-.17,2,2,0,0,1-.36-.27,2.54,2.54,0,0,1-.6-1,3.89,3.89,0,0,1-.22-1.35,3.65,3.65,0,0,1,.34-1.64,2.47,2.47,0,0,1,1-1.07,2.36,2.36,0,0,1,.76-.29,5,5,0,0,1,1-.09h1.71v1h-1.54a4.21,4.21,0,0,0-.85.07,1.47,1.47,0,0,0-.59.25,1.24,1.24,0,0,0-.38.45,2.49,2.49,0,0,0-.22.69h3.57Z"/><path class="cls-2" d="M146.94,82a2.89,2.89,0,0,1,2.18.8,3.15,3.15,0,0,1,.77,2.28,3,3,0,0,1-.79,2.22,3,3,0,0,1-2.24.79,3.16,3.16,0,0,1-2.26-.75,2.84,2.84,0,0,1-.79-2.16A4.12,4.12,0,0,1,144,83.9a2.74,2.74,0,0,1,.58-1,2.3,2.3,0,0,1,1-.66A4.2,4.2,0,0,1,146.94,82Zm-.12,1a1.64,1.64,0,0,0-1.33.54,2.38,2.38,0,0,0-.46,1.57,2.19,2.19,0,0,0,.45,1.5,1.69,1.69,0,0,0,1.33.51q1.85,0,1.85-2a2.3,2.3,0,0,0-.48-1.58A1.72,1.72,0,0,0,146.82,83Z"/><path class="cls-2" d="M150.52,83v-1h1.05v-.27a2,2,0,0,1,.46-1.48,2.06,2.06,0,0,1,1.49-.45h1.23v1h-1.06a2.48,2.48,0,0,0-.45,0A.54.54,0,0,0,153,81a.56.56,0,0,0-.14.29,2.52,2.52,0,0,0,0,.46v.33h1.87v1h-1.87v5h-1.2V83Z"/><path class="cls-2" d="M164.55,80.91h-2.38a5.15,5.15,0,0,0-.77.05,2.08,2.08,0,0,0-.58.17,1.45,1.45,0,0,0-.44.3,2.26,2.26,0,0,0-.34.46,2.29,2.29,0,0,0-.16.32,3,3,0,0,0-.1.33,2.52,2.52,0,0,0-.07.4c0,.15,0,.32,0,.51h4.87v1h-4.88a3.32,3.32,0,0,0,.39,1.6,1.74,1.74,0,0,0,.76.74,3.07,3.07,0,0,0,1.28.21h2.45v1h-2.68a6.72,6.72,0,0,1-1-.06,3.38,3.38,0,0,1-.77-.2,2.54,2.54,0,0,1-.61-.35,2.72,2.72,0,0,1-.51-.53,3.6,3.6,0,0,1-.6-1.21,5.85,5.85,0,0,1-.18-1.57,4.32,4.32,0,0,1,1.43-3.61,2.79,2.79,0,0,1,1-.48,6.41,6.41,0,0,1,1.54-.16h2.3Z"/><path class="cls-2" d="M165.19,82.09h1.43l1.63,2.19,1.64-2.19h1.4L169,85l2.37,3h-1.43l-1.66-2.23L166.52,88h-1.39l2.37-3Z"/><path class="cls-2" d="M176.41,83h-1.89a1.78,1.78,0,0,0-1.39.47,2.37,2.37,0,0,0-.41,1.56,2.24,2.24,0,0,0,.53,1.69,1.2,1.2,0,0,0,.49.26,3.24,3.24,0,0,0,.78.07h1.89v1h-1.89a7.82,7.82,0,0,1-.81,0,3.58,3.58,0,0,1-.61-.12,1.94,1.94,0,0,1-.48-.21,1.66,1.66,0,0,1-.38-.32,2.82,2.82,0,0,1-.55-1,3.76,3.76,0,0,1-.19-1.23,4,4,0,0,1,.19-1.28,2.71,2.71,0,0,1,.59-1,2.43,2.43,0,0,1,.42-.37,2,2,0,0,1,.49-.24,3,3,0,0,1,.59-.13,5.76,5.76,0,0,1,.74,0h1.89Z"/><path class="cls-2" d="M182.05,85.45h-3.57a2.34,2.34,0,0,0,.1.73,1.39,1.39,0,0,0,.32.52,1.18,1.18,0,0,0,.53.3,3.54,3.54,0,0,0,.91.09h1.71v1h-2a6.26,6.26,0,0,1-.69,0,3.6,3.6,0,0,1-.52-.09,1.57,1.57,0,0,1-.42-.17,2,2,0,0,1-.35-.27,2.54,2.54,0,0,1-.61-1,3.92,3.92,0,0,1-.21-1.35,3.6,3.6,0,0,1,.34-1.64,2.47,2.47,0,0,1,1-1.07,2.34,2.34,0,0,1,.76-.29,5.06,5.06,0,0,1,1-.09h1.71v1h-1.54a4.2,4.2,0,0,0-.85.07,1.46,1.46,0,0,0-.59.25,1.25,1.25,0,0,0-.38.45,2.43,2.43,0,0,0-.21.69h3.57Z"/><path class="cls-2" d="M183.42,88V79.88h1.2V88Z"/><path class="cls-2" d="M186.28,88V79.88h1.2V88Z"/><path class="cls-2" d="M193.55,85.45H190a2.33,2.33,0,0,0,.1.73,1.36,1.36,0,0,0,.32.52,1.2,1.2,0,0,0,.53.3,3.51,3.51,0,0,0,.91.09h1.72v1h-2a6.19,6.19,0,0,1-.69,0,3.6,3.6,0,0,1-.53-.09,1.5,1.5,0,0,1-.41-.17,2,2,0,0,1-.36-.27,2.56,2.56,0,0,1-.61-1,3.88,3.88,0,0,1-.21-1.35,3.6,3.6,0,0,1,.34-1.64,2.44,2.44,0,0,1,1-1.07,2.32,2.32,0,0,1,.76-.29,5,5,0,0,1,1-.09h1.72v1H192a4.21,4.21,0,0,0-.85.07,1.46,1.46,0,0,0-.59.25,1.27,1.27,0,0,0-.38.45,2.49,2.49,0,0,0-.21.69h3.57Z"/><path class="cls-2" d="M197.67,82.09a2,2,0,0,1,2.41,2.41V88h-1.2V84.63a3.27,3.27,0,0,0-.07-.74,1.16,1.16,0,0,0-.24-.5.88.88,0,0,0-.43-.27,2.38,2.38,0,0,0-.65-.08h-1.37v5h-1.2v-6Z"/><path class="cls-2" d="M206.18,83h-1.9a1.77,1.77,0,0,0-1.39.47,2.39,2.39,0,0,0-.41,1.56,2.24,2.24,0,0,0,.53,1.69,1.2,1.2,0,0,0,.49.26,3.26,3.26,0,0,0,.78.07h1.9v1h-1.9a7.78,7.78,0,0,1-.81,0,3.59,3.59,0,0,1-.61-.12,1.9,1.9,0,0,1-.47-.21,1.6,1.6,0,0,1-.38-.32,2.73,2.73,0,0,1-.55-1,3.72,3.72,0,0,1-.2-1.23,4,4,0,0,1,.2-1.28,2.65,2.65,0,0,1,.59-1,2.36,2.36,0,0,1,.41-.37,2,2,0,0,1,.49-.24,3,3,0,0,1,.59-.13,5.68,5.68,0,0,1,.74,0h1.9Z"/><path class="cls-2" d="M211.82,85.45h-3.57a2.33,2.33,0,0,0,.1.73,1.37,1.37,0,0,0,.32.52,1.18,1.18,0,0,0,.53.3,3.5,3.5,0,0,0,.91.09h1.71v1h-2a6.21,6.21,0,0,1-.69,0,3.63,3.63,0,0,1-.53-.09,1.56,1.56,0,0,1-.42-.17,2.18,2.18,0,0,1-.35-.27,2.54,2.54,0,0,1-.61-1,4,4,0,0,1-.21-1.35,3.6,3.6,0,0,1,.34-1.64,2.44,2.44,0,0,1,1-1.07,2.31,2.31,0,0,1,.76-.29,5,5,0,0,1,1-.09h1.71v1h-1.54a4.2,4.2,0,0,0-.85.07,1.48,1.48,0,0,0-.59.25,1.27,1.27,0,0,0-.38.45,2.56,2.56,0,0,0-.21.69h3.57Z"/><path class="cls-2" d="M215.61,83v-1h1.05v-.27a2,2,0,0,1,.46-1.48,2.07,2.07,0,0,1,1.49-.45h1.22v1h-1.06a2.51,2.51,0,0,0-.45,0,.5.5,0,0,0-.42.43,2.35,2.35,0,0,0,0,.46v.33h1.87v1h-1.87v5h-1.2V83Z"/><path class="cls-2" d="M223.29,82a2.89,2.89,0,0,1,2.18.8,3.16,3.16,0,0,1,.76,2.28,3,3,0,0,1-.79,2.22,3,3,0,0,1-2.24.79,3.16,3.16,0,0,1-2.26-.75,2.85,2.85,0,0,1-.79-2.16,4.12,4.12,0,0,1,.19-1.29,2.71,2.71,0,0,1,.58-1,2.29,2.29,0,0,1,1-.66A4.17,4.17,0,0,1,223.29,82Zm-.12,1a1.65,1.65,0,0,0-1.33.54,2.4,2.4,0,0,0-.46,1.57,2.19,2.19,0,0,0,.45,1.5,1.69,1.69,0,0,0,1.33.51q1.85,0,1.85-2a2.32,2.32,0,0,0-.48-1.58A1.73,1.73,0,0,0,223.16,83Z"/><path class="cls-2" d="M229,82.09a5.11,5.11,0,0,1,1.15.1,1.52,1.52,0,0,1,.69.35,1.26,1.26,0,0,1,.37.61,4,4,0,0,1,.11,1v.59h-1.11v-.59a1.29,1.29,0,0,0-.22-.88,1.17,1.17,0,0,0-.84-.23h-.46v5h-1.2v-6Z"/><path class="cls-2" d="M238,79.88h1.71L243,88h-1.38l-.83-2.13h-3.87L236,88h-1.38Zm-.73,5h3.06l-1.49-4Z"/><path class="cls-2" d="M246.28,82.09c.31,0,.58,0,.8,0a2.69,2.69,0,0,1,.59.12,1.84,1.84,0,0,1,.44.22,2.06,2.06,0,0,1,.39.36,3.24,3.24,0,0,1,.71,2.25,4.12,4.12,0,0,1-.24,1.41,2.68,2.68,0,0,1-.65,1,2.87,2.87,0,0,1-.36.26,1.48,1.48,0,0,1-.42.16A3.91,3.91,0,0,1,247,88c-.22,0-.49,0-.81,0H245v1.9h-1.2V82.09Zm-1.26,5h1.13a1.86,1.86,0,0,0,1.41-.43,1.56,1.56,0,0,0,.32-.66,4.15,4.15,0,0,0,.11-1,2.15,2.15,0,0,0-.43-1.5,1.89,1.89,0,0,0-1.41-.45H245Z"/><path class="cls-2" d="M252.93,82.09c.31,0,.58,0,.8,0a2.67,2.67,0,0,1,.59.12,1.86,1.86,0,0,1,.45.22,2.06,2.06,0,0,1,.39.36,3.24,3.24,0,0,1,.71,2.25,4.16,4.16,0,0,1-.24,1.41,2.2,2.2,0,0,1-1,1.31,1.47,1.47,0,0,1-.42.16,3.91,3.91,0,0,1-.58.08c-.22,0-.5,0-.81,0h-1.13v1.9h-1.2V82.09Zm-1.26,5h1.13a1.85,1.85,0,0,0,1.41-.43,1.53,1.53,0,0,0,.32-.66,4.06,4.06,0,0,0,.11-1,2.14,2.14,0,0,0-.43-1.5A1.87,1.87,0,0,0,252.8,83h-1.13Z"/><path class="cls-2" d="M257.11,88V79.88h1.2V88Z"/><path class="cls-2" d="M260,79.88h1.2v1.24H260Zm1.2,2.2v6H260v-6Z"/><path class="cls-2" d="M267.24,85.45h-3.57a2.34,2.34,0,0,0,.1.73,1.44,1.44,0,0,0,.32.52,1.21,1.21,0,0,0,.53.3,3.5,3.5,0,0,0,.91.09h1.72v1h-2a6.14,6.14,0,0,1-.68,0,3.55,3.55,0,0,1-.53-.09,1.52,1.52,0,0,1-.42-.17,2.11,2.11,0,0,1-.35-.27,2.56,2.56,0,0,1-.61-1,3.93,3.93,0,0,1-.22-1.35,3.6,3.6,0,0,1,.35-1.64,2.45,2.45,0,0,1,1-1.07,2.36,2.36,0,0,1,.76-.29,5,5,0,0,1,1-.09h1.72v1H265.7a4.21,4.21,0,0,0-.85.07,1.5,1.5,0,0,0-.59.25,1.29,1.29,0,0,0-.38.45,2.49,2.49,0,0,0-.21.69h3.57Z"/><path class="cls-2" d="M272.54,79.88h1.2V88h-2.66a5,5,0,0,1-1.28-.13,1.94,1.94,0,0,1-.81-.45,2.37,2.37,0,0,1-.59-1,4,4,0,0,1-.21-1.33,4.15,4.15,0,0,1,.27-1.54,2.37,2.37,0,0,1,.74-1,3.16,3.16,0,0,1,2-.51h1.37Zm0,3.16h-1.27a2.67,2.67,0,0,0-1,.14,1.18,1.18,0,0,0-.57.49A2.44,2.44,0,0,0,269.4,85a2.53,2.53,0,0,0,.38,1.58,1.58,1.58,0,0,0,1.29.46h1.46Z"/><path class="cls-2" d="M279.8,88h-1.32V79.88h3.72a7,7,0,0,1,1.42.12,2.46,2.46,0,0,1,.89.36,2,2,0,0,1,.62.77,2.32,2.32,0,0,1,.23,1,2.44,2.44,0,0,1-.18,1,1.77,1.77,0,0,1-.54.71,2.12,2.12,0,0,1-.41.27,4.05,4.05,0,0,1-.57.2,3.81,3.81,0,0,1,.68.38,1.63,1.63,0,0,1,.45.48,2.13,2.13,0,0,1,.26.68,7,7,0,0,1,.12,1c0,.24,0,.43,0,.56a2.87,2.87,0,0,0,0,.31,1.28,1.28,0,0,0,.06.19,1.18,1.18,0,0,0,.09.17H284l-.05-.13a1.5,1.5,0,0,1,0-.21c0-.2,0-.36,0-.46s0-.23,0-.37a4.09,4.09,0,0,0-.23-1.08,1.66,1.66,0,0,0-.49-.7,2,2,0,0,0-.82-.38,5.41,5.41,0,0,0-1.22-.12H279.8Zm2.31-4.48a4.88,4.88,0,0,0,.9-.06,1.12,1.12,0,0,0,.51-.21,1.3,1.3,0,0,0,.45-1.06,1.69,1.69,0,0,0-.14-.7.94.94,0,0,0-.41-.46,1.42,1.42,0,0,0-.45-.12,7,7,0,0,0-.85,0H279.8v2.66Z"/><path class="cls-2" d="M291,85.45h-3.57a2.33,2.33,0,0,0,.1.73,1.4,1.4,0,0,0,.32.52,1.18,1.18,0,0,0,.53.3,3.54,3.54,0,0,0,.91.09H291v1h-2a6.15,6.15,0,0,1-.68,0,3.66,3.66,0,0,1-.53-.09,1.57,1.57,0,0,1-.41-.17,2.13,2.13,0,0,1-.36-.27,2.58,2.58,0,0,1-.6-1,4,4,0,0,1-.21-1.35,3.63,3.63,0,0,1,.34-1.64,2.46,2.46,0,0,1,1-1.07,2.35,2.35,0,0,1,.76-.29,5,5,0,0,1,1-.09H291v1h-1.54a4.18,4.18,0,0,0-.85.07,1.46,1.46,0,0,0-.59.25,1.23,1.23,0,0,0-.38.45,2.49,2.49,0,0,0-.22.69H291Z"/><path class="cls-2" d="M297.22,83H294l-.3,0-.18.05a.43.43,0,0,0-.12.1.94.94,0,0,0-.2.64,1.24,1.24,0,0,0,0,.36.37.37,0,0,0,.17.22.92.92,0,0,0,.36.11,5.08,5.08,0,0,0,.6,0H296l.45,0a.91.91,0,0,1,.24.06l.2.11a1.14,1.14,0,0,1,.41.57,2.47,2.47,0,0,1,.15.9,2.31,2.31,0,0,1-.21,1,1.2,1.2,0,0,1-.6.59l-.22.08-.26,0-.39,0h-3.72v-1h2.86l.7,0A1,1,0,0,0,296,87c.19-.08.28-.3.28-.65s-.12-.61-.38-.67l-.27,0h-1.86a3.94,3.94,0,0,1-.52-.05,1.14,1.14,0,0,1-.34-.11,1.52,1.52,0,0,1-.26-.18,1.67,1.67,0,0,1-.44-.63,2.08,2.08,0,0,1-.16-.82,2,2,0,0,1,.21-.94,1.35,1.35,0,0,1,.6-.6,1.74,1.74,0,0,1,.56-.17,5.77,5.77,0,0,1,.83,0h3Z"/><path class="cls-2" d="M303.22,85.45h-3.58a2.27,2.27,0,0,0,.1.73,1.34,1.34,0,0,0,.32.52,1.19,1.19,0,0,0,.53.3,3.54,3.54,0,0,0,.91.09h1.71v1h-2a6.16,6.16,0,0,1-.68,0,3.62,3.62,0,0,1-.53-.09,1.56,1.56,0,0,1-.42-.17,2,2,0,0,1-.35-.27,2.56,2.56,0,0,1-.61-1,3.93,3.93,0,0,1-.22-1.35,3.63,3.63,0,0,1,.34-1.64,2.46,2.46,0,0,1,1-1.07,2.33,2.33,0,0,1,.76-.29,5,5,0,0,1,1-.09h1.71v1h-1.54a4.19,4.19,0,0,0-.85.07,1.46,1.46,0,0,0-.59.25,1.25,1.25,0,0,0-.38.45,2.62,2.62,0,0,0-.21.69h3.58Z"/><path class="cls-2" d="M308.59,84.4a4.75,4.75,0,0,0,0-.71.77.77,0,0,0-.18-.42.74.74,0,0,0-.41-.19,4.82,4.82,0,0,0-.71,0h-2.8v-1h3.06a4.62,4.62,0,0,1,1.22.12,1.37,1.37,0,0,1,.69.43,1.39,1.39,0,0,1,.3.61,5,5,0,0,1,.08,1V88h-3L306,88a4,4,0,0,1-.51-.06,1.56,1.56,0,0,1-.37-.12,1.77,1.77,0,0,1-.31-.2,1.71,1.71,0,0,1-.61-1.4,2.22,2.22,0,0,1,.21-1,1.43,1.43,0,0,1,.58-.64,1.52,1.52,0,0,1,.57-.19,5.82,5.82,0,0,1,.9-.06Zm-2,1a1.52,1.52,0,0,0-.9.2.79.79,0,0,0-.26.67.78.78,0,0,0,.26.67,1.55,1.55,0,0,0,.9.2h2V85.35Z"/><path class="cls-2" d="M312.9,82.09a5.14,5.14,0,0,1,1.15.1,1.54,1.54,0,0,1,.68.35,1.28,1.28,0,0,1,.37.61,4,4,0,0,1,.1,1v.59H314.1v-.59a1.29,1.29,0,0,0-.23-.88,1.16,1.16,0,0,0-.84-.23h-.46v5h-1.2v-6Z"/><path class="cls-2" d="M320.86,83H319a1.77,1.77,0,0,0-1.39.47,2.39,2.39,0,0,0-.41,1.56,2.23,2.23,0,0,0,.53,1.69,1.19,1.19,0,0,0,.49.26,3.28,3.28,0,0,0,.78.07h1.9v1H319a7.78,7.78,0,0,1-.81,0,3.56,3.56,0,0,1-.61-.12,2,2,0,0,1-.48-.21,1.65,1.65,0,0,1-.38-.32,2.68,2.68,0,0,1-.55-1,3.76,3.76,0,0,1-.2-1.23,4,4,0,0,1,.2-1.28,2.67,2.67,0,0,1,.59-1,2.45,2.45,0,0,1,.42-.37,2,2,0,0,1,.49-.24,3,3,0,0,1,.59-.13,5.66,5.66,0,0,1,.74,0h1.9Z"/><path class="cls-2" d="M323.09,82.09h1.38a5.42,5.42,0,0,1,1.29.12,1.9,1.9,0,0,1,.81.41,1.57,1.57,0,0,1,.46.76,4.86,4.86,0,0,1,.13,1.3V88H326V84.59a3.48,3.48,0,0,0-.07-.76,1,1,0,0,0-.24-.48.9.9,0,0,0-.46-.24,3.35,3.35,0,0,0-.74-.07h-1.37v5h-1.2V79.88h1.2Z"/><path class="cls-2" d="M335.79,84.4a4.77,4.77,0,0,0,0-.71.77.77,0,0,0-.18-.42.73.73,0,0,0-.41-.19,4.87,4.87,0,0,0-.71,0h-2.8v-1h3.06a4.64,4.64,0,0,1,1.22.12,1.35,1.35,0,0,1,.68.43,1.38,1.38,0,0,1,.31.61,5.08,5.08,0,0,1,.08,1V88h-3l-.74,0a4,4,0,0,1-.51-.06,1.55,1.55,0,0,1-.37-.12,1.75,1.75,0,0,1-.31-.2,1.71,1.71,0,0,1-.61-1.4,2.22,2.22,0,0,1,.21-1,1.41,1.41,0,0,1,.57-.64,1.53,1.53,0,0,1,.57-.19,5.77,5.77,0,0,1,.9-.06Zm-2,1a1.53,1.53,0,0,0-.9.2.8.8,0,0,0-.26.67.78.78,0,0,0,.26.67,1.56,1.56,0,0,0,.9.2h2V85.35Z"/><path class="cls-2" d="M341.32,82.09a2,2,0,0,1,2.41,2.41V88h-1.2V84.63a3.06,3.06,0,0,0-.07-.74,1.16,1.16,0,0,0-.23-.5.9.9,0,0,0-.43-.27,2.37,2.37,0,0,0-.66-.08h-1.37v5h-1.2v-6Z"/><path class="cls-2" d="M349.25,79.88h1.2V88H347.8a5.05,5.05,0,0,1-1.29-.13,1.94,1.94,0,0,1-.81-.45,2.37,2.37,0,0,1-.59-1,4,4,0,0,1-.21-1.33,4.16,4.16,0,0,1,.27-1.54,2.39,2.39,0,0,1,.74-1,3.16,3.16,0,0,1,2-.51h1.37Zm0,3.16H348a2.68,2.68,0,0,0-1,.14,1.18,1.18,0,0,0-.57.49,2.44,2.44,0,0,0-.33,1.38,2.53,2.53,0,0,0,.38,1.58,1.58,1.58,0,0,0,1.29.46h1.46Z"/><path class="cls-2" d="M354.34,80.91v-1h7v1h-2.82V88h-1.32V80.91Z"/><path class="cls-2" d="M362.63,82.09a5.12,5.12,0,0,1,1.15.1,1.53,1.53,0,0,1,.68.35,1.28,1.28,0,0,1,.37.61,4,4,0,0,1,.11,1v.59h-1.11v-.59a1.28,1.28,0,0,0-.23-.88,1.17,1.17,0,0,0-.84-.23h-.46v5h-1.2v-6Z"/><path class="cls-2" d="M369.9,84.4a4.74,4.74,0,0,0,0-.71.77.77,0,0,0-.18-.42.73.73,0,0,0-.41-.19,4.84,4.84,0,0,0-.71,0h-2.8v-1h3.06a4.64,4.64,0,0,1,1.22.12,1.36,1.36,0,0,1,.68.43,1.38,1.38,0,0,1,.3.61,5.08,5.08,0,0,1,.08,1V88h-3l-.74,0a4,4,0,0,1-.51-.06,1.61,1.61,0,0,1-.37-.12,1.83,1.83,0,0,1-.31-.2,1.71,1.71,0,0,1-.61-1.4,2.22,2.22,0,0,1,.21-1,1.43,1.43,0,0,1,.58-.64,1.52,1.52,0,0,1,.57-.19,5.86,5.86,0,0,1,.9-.06Zm-2,1a1.52,1.52,0,0,0-.9.2.8.8,0,0,0-.26.67.78.78,0,0,0,.26.67,1.55,1.55,0,0,0,.9.2h2V85.35Z"/><path class="cls-2" d="M372.68,79.88h1.2v1.24h-1.2Zm1.2,2.2v6h-1.2v-6Z"/><path class="cls-2" d="M378.29,82.09a2,2,0,0,1,2.41,2.41V88h-1.2V84.63a3.15,3.15,0,0,0-.07-.74,1.18,1.18,0,0,0-.24-.5.91.91,0,0,0-.43-.27,2.36,2.36,0,0,0-.65-.08h-1.37v5h-1.2v-6Z"/><path class="cls-2" d="M382.29,79.88h1.2v1.24h-1.2Zm1.2,2.2v6h-1.2v-6Z"/><path class="cls-2" d="M387.89,82.09a2,2,0,0,1,2.41,2.41V88h-1.2V84.63a3.24,3.24,0,0,0-.08-.74,1.16,1.16,0,0,0-.23-.5.91.91,0,0,0-.43-.27,2.37,2.37,0,0,0-.66-.08h-1.37v5h-1.2v-6Z"/><path class="cls-2" d="M397.08,87.37c0,.28,0,.51,0,.66s0,.28,0,.37,0,.16,0,.21,0,.11,0,.18a1.17,1.17,0,0,1-.91,1l-.28.07-.29,0-.37,0h-3V89h2.73a4.53,4.53,0,0,0,.54,0,.73.73,0,0,0,.31-.1.33.33,0,0,0,.14-.22,1.87,1.87,0,0,0,0-.39V88h-2a3.57,3.57,0,0,1-.5,0,1.85,1.85,0,0,1-.37-.1,2.61,2.61,0,0,1-.35-.18,2.17,2.17,0,0,1-.87-1,3.62,3.62,0,0,1-.29-1.52,4.29,4.29,0,0,1,.2-1.34,2.8,2.8,0,0,1,.56-1,1.87,1.87,0,0,1,.4-.36,2,2,0,0,1,.5-.23,3.08,3.08,0,0,1,.64-.13c.24,0,.52,0,.84,0h2.46ZM394.7,83a5.74,5.74,0,0,0-.63,0,2,2,0,0,0-.45.1.94.94,0,0,0-.32.18,1.45,1.45,0,0,0-.24.29,2.09,2.09,0,0,0-.25.69,4,4,0,0,0-.1.87,2.85,2.85,0,0,0,.12.83,1.73,1.73,0,0,0,.32.63,1.09,1.09,0,0,0,.49.34,2.81,2.81,0,0,0,.85.1h1.39V83Z"/><path class="cls-3" d="M45.35,2S29.68,8.87,20.92,18.65,7.6,40.56,7.6,62.8c0,17.53.17,20.9.17,20.9s19,3.33,36.06-.17,39.43-2,39.43-2v-32c0-8.59-6.24-25.62-16.18-33.37A182.28,182.28,0,0,0,45.35,2Z"/><path class="cls-4" d="M51.62,46.69c2.73-.28,4.14.57,4.83,1.33l-.07.15c-5.79.16-8.79,5.43-9.8,8.32-1.31,3.77.86,14.74,22.62,17.18L17.6,73.3s-1.57-20.11,1.1-30c5.82-21.53,26.2-27.17,26.2-27.17-8.65,5.85-14.38,11.63-14,17.6a7.31,7.31,0,0,0,8.19,6.95c2.36-.35,7.32-3.44,10.3-3.24a7.82,7.82,0,0,1,6,3.41A5.38,5.38,0,0,1,55.77,43c.23.22.88,1.11,1.07,1.36,1.1,1.42,1.25,2.54.24,4.73a2.73,2.73,0,0,0-.63-1"/><path class="cls-5" d="M51.72,46.62c2.72-.28,4.13.57,4.83,1.33l-.07.15c-5.8.16-8.8,5.43-9.8,8.32-1.31,3.77.87,14.74,22.62,17.18l-51.61-.38s-1.57-20.11,1.09-30C24.61,21.71,45,16.08,45,16.08c-8.65,5.84-14.38,11.63-14,17.59a7.3,7.3,0,0,0,8.19,6.95c2.36-.34,7.32-3.43,10.3-3.23a7.83,7.83,0,0,1,6,3.4,5.5,5.5,0,0,1,.45,2.09c.22.22.87,1.11,1.07,1.35,1.11,1.43,1.25,2.55.24,4.73a2.76,2.76,0,0,0-.63-1"/><path d="M56.85,48l-.12-.2c-.76-.83-2.17-2.19-5-1l-.24.12c2.74-.5,3.71.28,4.32,1l.11.1a.89.89,0,0,1-.33.15,3.3,3.3,0,0,1-1.11,0c-.29,0-1.47-.5-1.47-.5a1.77,1.77,0,0,0,.44.49c.25.18.45.22.41.23a6.5,6.5,0,0,0-2.1.93,11.24,11.24,0,0,0-2.3,1.93,17.07,17.07,0,0,0-3.35,5.69c-.58,1.66-.4,4.24,1.63,7.3,2.38,3.57,8,8,21.44,8.93l0-.73L45,74.28,17.59,72l.37.34c0-.22-1.54-19.19,1.08-28.88C24.74,22.34,44.8,16.56,45,16.5l-.3-.65a51.34,51.34,0,0,0-10.46,8.82c-2.68,3.17-3.89,6.15-3.71,9.1a7.48,7.48,0,0,0,2.68,5.54,8.25,8.25,0,0,0,5.92,1.74A19.22,19.22,0,0,0,43,39.68c2.18-.93,4.64-2,6.33-1.86A7.42,7.42,0,0,1,55,41a4.24,4.24,0,0,1,.41,1.86.39.39,0,0,0,.09.29h0c.15.15.56.69.8,1l.23.31a3.33,3.33,0,0,1,.83,1.8A4.15,4.15,0,0,1,57,48.24a2.4,2.4,0,0,0-.31-.47l-.5.56a3.17,3.17,0,0,1,.52.81l.27.65.39-.65a7,7,0,0,0,.7-2.15,3.84,3.84,0,0,0-1-2.91l-.23-.3A13,13,0,0,0,56,42.69l0,0a.38.38,0,0,1,.09.2v0a4.94,4.94,0,0,0-.5-2.17,8.2,8.2,0,0,0-6.24-3.59C47.53,37,45,38.06,42.73,39A18.47,18.47,0,0,1,39,40.34a7.51,7.51,0,0,1-5.36-1.59,6.72,6.72,0,0,1-2.42-5c-.31-5.18,4.09-10.67,13.87-17.27l-.3-.65a40,40,0,0,0-11,5.56,34.6,34.6,0,0,0-8,7.92A42,42,0,0,0,19,43.41c-1.11,4.12-1.25,10.26-1.18,18.93.06,6.44.09,9.91.09,10l-.7.39h.35L45,75.2l24.25-2.14v-.72c-13.11-.89-18.59-5.17-20.88-8.61a8.5,8.5,0,0,1-1.42-7.12c.39-1.12,2.62-6.31,7.15-7.86a6.9,6.9,0,0,1,2.32-.21h.22"/><path class="cls-3" d="M48.49,40.89a7.5,7.5,0,0,1,2.38-.08,10.27,10.27,0,0,1,2.2,1.08l-.39.05s-.6,1.58-1.92,1.31a2,2,0,0,1-1.54-2.18A3.4,3.4,0,0,1,48.49,40.89Z"/><path d="M53.33,42.09c-2-2.4-5.34-1.21-5.47-1.17L48,41a7.91,7.91,0,0,1,5.08,1Z"/><path d="M53,41.8s-.13,0-.43.09l-.05,0,0,0a2.29,2.29,0,0,1-2,1.13c-1.2-.17-1.33-1.91-1.33-1.93v0l0-.11-.1,0a2,2,0,0,0-.54-.12h-.33a4.27,4.27,0,0,1,.79.37l-.09-.12s.13,2,1.55,2.17a2.49,2.49,0,0,0,2.27-1.26l-.07.06c.17-.06.6-.15.53-.17Z"/><path d="M49.89,40.83a1.49,1.49,0,0,0-.07.35,1.22,1.22,0,0,0,1,1.36A1.17,1.17,0,0,0,52,41.39Z"/><path class="cls-6" d="M53,47.71"/><path class="cls-3" d="M43,17.12s1.53-.59,1.88-.75a1.25,1.25,0,0,0,.5-.4l-.62-.39Z"/><path class="cls-3" d="M44.91,16.37a.54.54,0,0,1,.42.24c.16.24.9-.08.9-.08L45.57,16Z"/><path d="M44.95,6.55C76.2,16,79.5,49,79.5,49l0,23.18h5.77V47.59C80.6,9.8,44.95,0,44.95,0Z"/><path d="M44.92,8.38v3.78S69.83,19.4,74.11,49.11c0,3.57,0,23.07,0,23.07h3.62v-22S76.18,18.67,44.92,8.38Z"/><path d="M45,13.85v2.68S65.45,23,70,48.7l0,23.48h2.52V49.12S70.07,22.78,45,13.85Z"/><path class="cls-1" d="M44.94,6.51C13.67,16,10.37,49,10.37,49l0,23.23H4.56l0-24.65C9.27,9.76,44.94,0,44.94,0Z"/><path class="cls-1" d="M45,8.35v3.78S20,19.37,15.78,49.07c0,3.57,0,23.13,0,23.13H12.14V50.12S13.7,18.64,45,8.35Z"/><path class="cls-1" d="M44.95,13.86v2.68S24.4,23,19.82,48.71l0,23.41H17.35v-23S19.84,22.78,44.95,13.86Z"/><path class="cls-7" d="M38.75,73.18"/><path class="cls-7" d="M44,72.12"/><path class="cls-8" d="M45,12.36"/><path class="cls-7" d="M0,66.54c20.81,3.21,30.66,2.71,43.75,1.08,14.39-1.8,27.71-2.15,38.61-1.08v16c-13.27-1-30.56-.25-41.18,1.58C33.39,85.5,13,86.15,0,82.59Z"/><path class="cls-3" d="M16.15,78.41c1.59.06,3.18,0,4.78,0,0,.6,0,1.05,0,1.21a3.62,3.62,0,0,1-.53,2.17,3.19,3.19,0,0,1-2.34,1.13,25.07,25.07,0,0,1-6-.06,47.87,47.87,0,0,1-6.37-.94,10,10,0,0,1-2.85-1,4.11,4.11,0,0,1-1.31-1.2A4.41,4.41,0,0,1,1,78,29.85,29.85,0,0,1,.9,75c0-1.38.06-2.39.12-3a3.34,3.34,0,0,1,.41-1.38,3,3,0,0,1,2.66-1c1.31,0,4,.34,8,.79,2,.22,3.5.35,4.44.48a11.25,11.25,0,0,1,2.19.47,2.79,2.79,0,0,1,1.5,1.2,4.87,4.87,0,0,1,.44,2.26v.6q-2.39,0-4.78-.19a5.37,5.37,0,0,0-.09-.79.71.71,0,0,0-.28-.38,4,4,0,0,0-1.37-.37l-3.37-.41c-1.5-.16-2.53-.29-3.09-.32a2.55,2.55,0,0,0-1.22.12,1.15,1.15,0,0,0-.59.79,7.49,7.49,0,0,0-.18,2,9.36,9.36,0,0,0,.15,2,1.64,1.64,0,0,0,.6.91,3.89,3.89,0,0,0,1.28.5,28.49,28.49,0,0,0,3.09.47c1.84.19,3.06.25,3.66.25a2.44,2.44,0,0,0,1.22-.22C16,79.56,16.12,79.16,16.15,78.41Z"/><path class="cls-3" d="M22.62,71.13C28.4,71,34.21,70.58,40,70v2.83c-4.22.44-8.44.78-12.65,1v1.73c4-.22,8-.51,12-.92v2.65c-4,.4-8,.72-12,.91v1.95c4.25-.22,8.5-.57,12.75-1v2.9c-5.81.57-11.65.94-17.47,1.07v-12Z"/><path class="cls-3" d="M41.58,81.92V69.86c3.81-.44,7.66-.85,11.5-1.23,2.72-.26,4.34-.35,4.87-.35a4.5,4.5,0,0,1,1.56.32,2.17,2.17,0,0,1,1.22,1.07,5.66,5.66,0,0,1,.35,2.27,6.91,6.91,0,0,1-.22,1.92,1.92,1.92,0,0,1-.81,1,5.07,5.07,0,0,1-1.9.66,3.49,3.49,0,0,1,2.16.54,1.3,1.3,0,0,1,.5.79,14.12,14.12,0,0,1,.09,2.05V80c-1.56.13-3.12.22-4.72.35v-.63a7.09,7.09,0,0,0-.09-1.45,1.11,1.11,0,0,0-.34-.6,1.68,1.68,0,0,0-.75-.22c-.31,0-.94,0-1.94.13-2.25.22-4.5.44-6.72.69v3.05l-4.75.57Zm4.75-6.61c2.22-.25,4.47-.47,6.72-.69,1.16-.12,1.87-.22,2.09-.26a1.49,1.49,0,0,0,.56-.18.74.74,0,0,0,.44-.48,2.39,2.39,0,0,0,.12-.91,2.13,2.13,0,0,0-.12-.85.8.8,0,0,0-.51-.38A1.91,1.91,0,0,0,55,71.5c-.22,0-.88.06-2,.16-2.22.19-4.47.44-6.68.69Z"/><path class="cls-3" d="M62.08,68a166.1,166.1,0,0,1,19,.76v3.09c-2.34-.25-4.65-.47-7-.66V80c-1.69-.1-3.38,0-5,0V70.93c-2.35,0-4.66,0-7,.09Z"/></g></g></svg>